<?xml version="1.0" standalone="no"?>
<!DOCTYPE svg PUBLIC "-//W3C//DTD SVG 20010904//EN"
 "http://www.w3.org/TR/2001/REC-SVG-20010904/DTD/svg10.dtd">
<svg version="1.0" xmlns="http://www.w3.org/2000/svg"
 width="2392.000000pt" height="2392.000000pt" viewBox="0 0 2392.000000 2392.000000"
 preserveAspectRatio="xMidYMid meet">
<metadata>
Created by potrace 1.14, written by Peter Selinger 2001-2017
</metadata>
<g transform="translate(0.000000,2392.000000) scale(0.100000,-0.100000)"
fill="#000000" stroke="none">
<path d="M8345 23751 c-27 -9 -56 -20 -62 -24 -7 -5 -17 -6 -22 -2 -5 3 -12 1
-16 -5 -4 -6 -11 -8 -16 -5 -5 4 -9 2 -9 -3 0 -5 -15 -13 -32 -17 -18 -4 -35
-9 -38 -10 -3 -1 -12 -4 -20 -8 -8 -3 -33 -11 -55 -18 -22 -6 -46 -16 -52 -22
-7 -5 -13 -7 -13 -3 0 3 -24 -4 -52 -15 -29 -12 -59 -22 -65 -22 -7 0 -13 -4
-13 -9 0 -5 -4 -7 -8 -4 -5 3 -22 -2 -38 -10 -16 -9 -30 -15 -31 -15 -3 1 -14
-3 -95 -33 -38 -14 -68 -23 -68 -20 0 3 -7 -2 -16 -10 -14 -14 -35 -21 -56
-17 -5 0 -8 -4 -8 -9 0 -5 -8 -10 -18 -10 -10 0 -22 -3 -26 -7 -4 -5 -11 -8
-14 -8 -4 -1 -29 -11 -57 -24 -27 -12 -57 -24 -66 -26 -9 -2 -35 -13 -57 -24
-23 -12 -48 -21 -57 -21 -8 0 -15 -4 -15 -10 0 -5 -8 -10 -18 -10 -10 0 -27
-7 -38 -15 -12 -8 -24 -11 -28 -8 -3 3 -6 2 -6 -4 0 -5 -6 -10 -12 -10 -7 0
-62 -24 -123 -53 -60 -28 -114 -52 -120 -53 -5 -1 -13 -6 -17 -12 -4 -5 -11
-10 -15 -11 -22 -2 -63 -17 -63 -23 0 -4 -22 -15 -50 -26 -27 -11 -50 -23 -50
-27 0 -4 -3 -7 -7 -6 -9 3 -180 -80 -203 -97 -8 -6 -31 -18 -50 -25 -19 -8
-37 -16 -40 -19 -3 -3 -32 -20 -65 -37 -124 -65 -153 -81 -175 -97 -13 -9 -27
-14 -32 -11 -4 3 -8 1 -8 -4 0 -5 -17 -18 -37 -27 -21 -10 -40 -21 -43 -24 -3
-3 -23 -15 -45 -26 -22 -11 -42 -22 -45 -25 -3 -4 -34 -23 -70 -43 -138 -79
-424 -258 -428 -269 -2 -4 -10 -8 -17 -8 -8 0 -18 -7 -23 -16 -5 -9 -13 -16
-18 -17 -16 -1 -104 -58 -104 -68 0 -5 -4 -8 -9 -7 -4 2 -33 -14 -62 -35 -277
-196 -428 -305 -465 -336 -6 -4 -39 -30 -75 -57 -35 -26 -72 -55 -81 -63 -31
-28 -48 -41 -53 -41 -3 0 -18 -11 -33 -25 -15 -15 -46 -40 -69 -57 -24 -17
-43 -35 -43 -40 0 -4 -4 -8 -9 -8 -6 0 -22 -11 -37 -25 -15 -14 -40 -36 -56
-48 -16 -12 -41 -33 -56 -47 -16 -14 -55 -47 -87 -75 -32 -27 -77 -67 -99 -87
-23 -20 -52 -46 -66 -58 -52 -45 -248 -229 -357 -335 -62 -61 -113 -110 -113
-109 0 2 -26 -25 -57 -58 -32 -34 -83 -86 -113 -118 -111 -115 -249 -265 -344
-375 -38 -44 -79 -90 -90 -102 -12 -12 -26 -28 -31 -35 -22 -28 -101 -123
-115 -138 -8 -9 -28 -34 -45 -55 -16 -21 -35 -43 -40 -49 -6 -6 -35 -42 -65
-81 -30 -38 -59 -75 -65 -81 -5 -6 -21 -27 -35 -47 -14 -20 -28 -37 -32 -37
-5 0 -8 -4 -8 -10 0 -5 -7 -18 -16 -27 -19 -22 -109 -142 -159 -213 -21 -30
-42 -59 -47 -65 -17 -19 -207 -294 -219 -317 -7 -13 -15 -25 -18 -28 -5 -4
-119 -177 -168 -256 -76 -122 -249 -413 -323 -544 -95 -167 -341 -649 -417
-815 -83 -181 -171 -383 -227 -525 -32 -80 -64 -158 -71 -175 -61 -144 -247
-685 -318 -925 -53 -177 -141 -500 -151 -550 -3 -14 -16 -71 -30 -127 -14 -56
-27 -112 -30 -125 -3 -13 -14 -67 -25 -122 -12 -54 -23 -108 -25 -120 -3 -11
-10 -46 -16 -76 -6 -30 -13 -64 -15 -75 -53 -305 -95 -565 -100 -620 -4 -39
-9 -72 -10 -75 -2 -3 -6 -37 -10 -75 -4 -39 -9 -72 -10 -75 -2 -3 -6 -41 -10
-85 -4 -44 -8 -93 -10 -110 -3 -30 -14 -149 -20 -215 -2 -19 -6 -80 -10 -135
-3 -55 -8 -120 -10 -145 -24 -261 -23 -1127 0 -1385 2 -22 6 -89 10 -148 3
-60 7 -123 10 -140 2 -18 7 -66 10 -107 3 -41 8 -91 10 -110 9 -82 16 -147 20
-180 2 -19 7 -57 10 -85 4 -27 8 -61 10 -75 2 -14 7 -50 10 -80 3 -30 8 -62
10 -70 2 -8 7 -37 10 -65 3 -27 7 -57 10 -65 2 -8 7 -37 10 -65 11 -81 12 -87
24 -150 6 -33 13 -73 16 -90 4 -28 7 -42 20 -105 2 -14 7 -36 9 -50 2 -14 16
-81 31 -150 24 -116 47 -235 61 -320 3 -19 26 -132 50 -250 25 -118 47 -226
50 -240 3 -14 7 -33 10 -42 3 -10 8 -30 10 -45 52 -289 390 -1259 588 -1686
20 -42 36 -79 36 -81 0 -16 318 -665 379 -774 21 -37 64 -114 96 -172 66 -119
231 -398 284 -480 20 -30 36 -57 36 -60 0 -3 8 -16 18 -30 30 -42 147 -223
147 -227 0 -2 5 -9 10 -16 6 -7 61 -84 122 -172 134 -194 335 -464 441 -595 7
-8 39 -49 72 -90 33 -41 62 -77 65 -80 3 -3 34 -40 69 -83 35 -42 68 -77 74
-77 6 0 8 -3 4 -6 -3 -3 11 -24 31 -46 46 -50 48 -53 96 -108 185 -212 550
-588 775 -796 35 -32 87 -81 116 -109 29 -27 71 -64 92 -82 21 -17 57 -49 79
-70 23 -21 63 -57 90 -79 27 -23 60 -52 74 -64 14 -12 38 -31 54 -43 15 -12
38 -31 50 -42 52 -48 177 -145 186 -145 5 0 10 -4 10 -9 0 -5 26 -28 58 -52
31 -24 62 -48 68 -54 6 -5 22 -17 34 -25 13 -8 38 -27 55 -42 18 -16 35 -28
39 -28 3 0 14 -7 24 -16 42 -37 121 -94 131 -94 6 0 11 -4 11 -9 0 -7 74 -62
167 -123 14 -9 30 -22 34 -30 5 -7 9 -9 9 -5 0 4 25 -11 55 -33 30 -22 59 -40
65 -40 5 0 10 -3 10 -7 0 -5 29 -26 65 -48 36 -22 65 -43 65 -47 0 -4 5 -8 10
-8 13 0 154 -91 158 -102 2 -5 8 -6 13 -2 5 3 9 0 9 -5 0 -6 9 -11 21 -11 11
0 17 -4 14 -10 -3 -5 0 -10 8 -10 8 0 26 -9 39 -20 14 -10 28 -16 32 -13 3 3
6 1 6 -5 0 -7 17 -20 38 -30 20 -9 39 -19 42 -22 6 -7 96 -60 133 -79 15 -7
27 -18 27 -23 0 -5 4 -7 8 -4 5 3 24 -5 43 -18 37 -25 122 -72 214 -120 33
-17 62 -33 65 -36 3 -3 28 -16 55 -30 28 -13 62 -32 77 -42 14 -10 33 -18 41
-18 9 0 17 -3 19 -8 4 -10 211 -112 226 -112 7 0 12 -4 12 -8 0 -4 15 -14 33
-21 17 -8 34 -15 37 -16 3 -2 15 -6 28 -10 12 -4 22 -11 22 -16 0 -5 9 -9 20
-9 11 0 20 -5 20 -11 0 -6 6 -9 14 -6 7 3 19 0 25 -6 7 -7 15 -12 19 -13 4 0
35 -14 69 -31 34 -17 64 -28 67 -25 4 3 6 0 6 -6 0 -7 3 -11 8 -10 4 1 25 -7
47 -17 22 -10 42 -19 45 -20 17 -8 50 -17 56 -15 4 1 10 -4 15 -11 4 -7 14
-14 22 -15 8 -1 31 -9 51 -18 20 -9 53 -23 74 -32 20 -9 50 -22 66 -30 16 -8
33 -14 37 -14 4 0 29 -10 56 -22 26 -12 55 -23 63 -24 8 -1 29 -9 45 -18 17
-9 38 -16 48 -16 9 0 17 -4 17 -8 0 -5 6 -9 13 -10 21 -2 40 -8 81 -25 21 -9
44 -17 52 -17 7 0 16 -5 19 -10 4 -6 10 -8 14 -5 5 2 16 -2 27 -9 10 -8 24
-12 31 -9 7 3 13 0 13 -7 0 -7 6 -10 14 -7 7 3 17 2 22 -3 8 -7 86 -35 91 -32
1 1 15 -5 30 -13 14 -8 30 -12 35 -9 4 3 8 0 8 -5 0 -6 3 -10 8 -9 4 1 41 -9
82 -22 41 -13 78 -24 83 -26 4 -1 9 -3 12 -4 3 -1 8 -3 13 -4 4 -1 13 -5 20
-10 7 -4 16 -5 19 -2 3 3 11 2 17 -2 6 -5 38 -17 71 -26 33 -10 87 -26 120
-36 69 -21 127 -35 138 -32 4 1 7 -2 7 -6 0 -6 47 -20 133 -38 4 -1 8 -2 10
-4 2 -2 33 -10 57 -14 8 -2 22 -6 30 -9 17 -6 212 -55 248 -62 13 -2 31 -6 40
-9 9 -3 28 -7 42 -10 14 -3 36 -8 50 -11 14 -3 39 -9 55 -12 45 -8 60 -11 60
-13 0 -1 9 -3 20 -5 11 -2 35 -7 52 -10 18 -3 35 -6 38 -6 2 0 19 -5 37 -10
18 -5 53 -12 78 -15 25 -3 49 -8 53 -11 5 -3 20 -7 35 -9 97 -14 147 -22 147
-24 0 -1 14 -3 30 -5 17 -1 30 -3 30 -4 0 -4 36 -10 80 -15 22 -3 56 -8 75
-11 70 -13 163 -27 205 -30 17 -2 30 -4 30 -5 0 -1 23 -4 50 -6 66 -7 100 -12
100 -14 0 -1 20 -3 45 -4 25 -1 50 -5 55 -8 6 -2 22 -4 38 -3 15 1 27 -1 27
-4 0 -3 19 -7 43 -7 49 -2 162 -11 162 -13 0 -1 25 -4 55 -6 30 -2 87 -6 125
-9 153 -11 294 -19 372 -20 46 -1 83 -5 83 -9 0 -4 9 -3 20 3 11 6 20 7 20 3
0 -5 176 -9 390 -9 215 0 390 3 390 6 0 8 32 6 46 -3 6 -3 14 -4 18 0 3 3 45
8 93 9 130 5 237 11 338 19 50 4 104 8 121 9 17 2 36 6 42 10 7 4 12 2 12 -4
0 -6 5 -8 11 -4 7 4 33 8 59 9 26 1 51 4 56 7 5 3 28 4 52 4 23 -1 42 1 42 4
0 3 20 6 45 5 25 0 45 2 45 5 0 3 15 6 33 7 17 1 50 4 72 6 82 10 151 19 173
23 12 2 33 6 45 7 13 2 29 7 35 11 7 4 12 2 12 -4 0 -7 5 -8 13 -3 6 4 19 8
27 8 8 1 29 4 45 8 17 3 49 9 72 12 73 10 97 14 123 19 14 3 37 7 53 8 15 1
27 5 27 8 0 3 15 6 33 7 38 2 58 6 74 16 8 5 13 3 13 -3 0 -7 6 -8 18 -1 10 5
32 12 48 15 16 2 29 5 29 6 0 1 11 4 25 5 41 6 85 13 88 16 2 2 1 1 57 14 22
5 48 9 58 10 9 2 18 4 20 5 1 1 13 4 27 5 14 1 33 5 42 10 10 4 29 8 43 9 14
0 25 3 25 6 0 3 8 7 18 8 21 2 57 10 57 12 0 1 9 3 20 4 11 2 67 15 125 30 58
15 112 29 120 31 8 2 15 4 15 5 0 2 17 6 60 15 42 10 48 11 65 18 8 4 24 9 35
11 36 7 65 18 65 25 0 8 -69 219 -118 361 -262 756 -639 1560 -1042 2225 -40
66 -80 133 -89 150 -9 16 -19 32 -22 35 -3 3 -34 50 -69 105 -51 81 -207 315
-280 419 -47 67 -213 293 -269 366 -86 112 -162 210 -183 235 -9 11 -53 65
-98 120 -45 55 -86 102 -91 103 -5 2 -9 8 -9 13 0 5 -8 17 -17 27 -30 31 -137
154 -149 171 -7 9 -33 38 -58 65 -48 52 -48 67 -4 73 13 2 30 6 38 10 18 7 39
13 63 15 9 1 17 5 17 8 0 4 7 7 15 8 8 1 22 3 30 4 8 1 15 4 15 8 0 4 6 7 13
8 34 3 64 9 75 16 7 4 12 4 12 -1 0 -4 4 -2 9 6 5 7 20 14 35 14 14 0 26 4 26
9 0 6 7 8 15 4 8 -3 15 -2 15 3 0 4 6 8 13 9 22 1 52 10 90 26 20 8 37 13 37
11 0 -2 15 2 34 10 18 8 36 11 40 8 3 -4 6 -1 6 6 0 7 4 10 9 6 5 -3 13 0 16
6 4 5 13 8 21 5 8 -3 14 -1 14 5 0 6 4 8 9 4 5 -3 12 -1 16 5 4 6 10 8 15 5 5
-3 11 -1 15 5 4 6 11 8 16 5 5 -4 9 -2 9 3 0 5 7 9 15 10 8 1 22 3 30 4 8 1
15 5 15 10 0 5 4 7 8 4 5 -3 22 2 38 10 16 9 31 16 34 16 7 1 27 7 48 15 9 3
22 7 27 9 23 6 80 29 85 34 6 6 30 12 48 13 6 0 12 4 12 9 0 4 7 8 15 8 9 0
32 7 53 16 20 10 42 18 47 19 6 1 30 12 55 23 47 21 83 34 88 32 1 0 19 8 40
19 44 23 74 35 85 33 4 -1 7 3 7 8 0 6 8 10 18 10 10 0 22 3 26 8 4 4 11 7 14
8 4 0 30 11 57 24 28 13 52 24 55 25 3 0 15 6 28 13 12 7 22 10 22 7 0 -3 18
6 40 20 22 14 40 23 40 20 0 -4 12 1 28 9 15 8 140 70 277 137 138 68 252 126
255 130 3 4 18 11 33 14 15 4 27 11 27 15 0 5 10 12 23 15 12 4 38 17 57 29
19 11 39 21 43 21 4 0 11 5 15 10 4 6 14 11 22 13 8 2 17 8 18 13 2 5 12 9 23
9 10 0 19 4 19 8 0 5 19 17 41 28 23 10 47 23 53 29 6 5 32 20 58 33 27 13 54
29 60 35 7 7 33 23 58 36 68 37 335 205 338 213 2 5 10 8 17 8 8 0 20 6 27 12
22 21 108 78 117 78 4 0 16 9 26 20 10 11 24 20 31 20 7 0 14 3 16 8 3 7 95
72 103 72 3 0 13 6 22 14 42 34 114 86 119 86 3 0 11 6 19 13 7 6 23 19 36 29
35 24 272 200 286 213 7 5 23 18 35 28 48 36 204 159 223 175 11 9 45 37 75
62 30 25 61 50 67 57 7 6 18 13 25 16 25 8 -6 46 -234 290 -64 68 -339 347
-343 347 -1 0 -36 33 -77 72 -41 40 -116 111 -167 158 -51 47 -107 99 -125
115 -60 56 -169 150 -190 165 -12 8 -33 27 -48 42 -15 16 -30 28 -33 28 -3 0
-13 8 -23 17 -25 25 -256 211 -347 281 -5 4 -36 29 -68 55 -33 26 -62 47 -65
47 -4 0 -21 14 -39 30 -18 17 -34 30 -37 30 -5 0 -157 111 -206 150 -14 11
-31 20 -37 20 -7 0 -13 5 -13 10 0 6 -8 14 -17 17 -10 4 -37 21 -60 38 -71 52
-122 86 -128 85 -3 0 -12 5 -19 13 -8 8 -38 29 -68 48 -29 18 -56 38 -60 44
-4 5 -8 6 -8 2 0 -4 -10 1 -22 13 -12 11 -34 26 -50 32 -15 7 -28 16 -28 20 0
5 -7 8 -15 8 -8 0 -15 5 -15 10 0 6 -6 10 -14 10 -8 0 -21 6 -28 14 -8 7 -29
21 -48 31 -18 9 -38 21 -44 27 -23 19 -232 140 -243 141 -7 0 -13 4 -13 8 0 4
-25 20 -55 35 -30 16 -55 32 -55 37 0 4 -4 6 -9 2 -5 -3 -15 0 -23 7 -7 7 -31
22 -53 34 -146 77 -222 119 -237 132 -10 8 -18 12 -18 9 0 -5 -126 57 -164 80
-6 4 -17 8 -25 10 -8 1 -17 7 -21 13 -4 7 -11 12 -16 12 -5 0 -27 10 -49 21
-22 12 -42 21 -45 22 -3 0 -34 14 -70 31 -129 63 -215 102 -237 109 -13 3 -23
11 -23 16 0 5 -6 9 -12 8 -7 -2 -40 10 -73 25 -33 15 -78 35 -100 43 -22 9
-44 20 -49 25 -6 4 -18 8 -27 8 -10 0 -25 7 -33 16 -9 8 -16 13 -16 10 0 -2
-55 18 -122 46 -68 27 -127 50 -133 52 -5 1 -14 4 -20 7 -8 5 -77 30 -95 34
-3 1 -18 8 -35 15 -33 14 -53 21 -72 22 -7 1 -13 5 -13 10 0 5 -4 6 -10 3 -5
-3 -10 -1 -10 4 0 6 -3 10 -7 9 -10 -2 -65 13 -78 21 -5 3 -13 6 -17 7 -5 1
-9 2 -10 4 -2 1 -10 3 -18 5 -17 4 -155 52 -185 64 -11 5 -36 13 -55 19 -19 6
-82 25 -140 43 -58 18 -111 32 -117 32 -7 0 -13 3 -13 7 0 5 -18 9 -57 12 -7
1 -13 4 -13 8 0 3 -29 13 -65 20 -36 7 -65 17 -65 21 0 4 -11 6 -25 4 -14 -1
-25 2 -25 7 0 5 -6 8 -12 6 -7 -1 -38 5 -68 14 -30 9 -68 20 -85 24 -33 8 -41
10 -52 14 -5 1 -12 2 -17 1 -4 -1 -13 2 -20 7 -6 4 -24 9 -41 11 -16 2 -36 8
-42 13 -7 6 -13 8 -13 5 0 -3 -17 -1 -37 5 -21 5 -56 14 -78 19 -22 5 -51 12
-65 15 -14 3 -34 7 -45 9 -11 1 -20 3 -20 4 0 2 -7 4 -15 6 -36 8 -86 18 -105
20 -11 2 -20 4 -20 5 0 1 -9 3 -20 5 -47 9 -72 14 -95 20 -14 3 -41 8 -60 11
-45 7 -69 11 -100 19 -14 3 -36 8 -50 10 -107 15 -127 19 -144 27 -14 8 -17 7
-10 -4 6 -11 5 -11 -9 1 -9 7 -17 11 -17 9 0 -3 -21 -1 -47 4 -59 11 -97 18
-143 23 -19 2 -48 6 -65 9 -54 9 -120 18 -145 19 -14 2 -31 6 -37 10 -8 5 -13
3 -13 -5 0 -8 -3 -9 -8 -3 -4 6 -16 11 -27 12 -11 1 -51 5 -90 9 -38 3 -82 7
-96 9 -15 1 -32 5 -38 9 -6 4 -11 1 -11 -6 0 -8 -3 -9 -8 -3 -4 6 -25 11 -47
12 -141 7 -149 11 -92 50 17 12 43 33 57 45 14 13 50 43 80 68 30 25 72 61 94
80 21 19 46 42 55 50 9 8 48 42 86 75 39 33 79 69 91 80 12 11 74 70 140 130
142 132 433 423 564 565 148 159 152 163 205 225 28 31 61 70 75 85 14 15 45
51 70 80 25 29 54 64 65 76 11 13 31 37 45 55 14 18 30 37 35 43 68 72 429
545 546 716 24 36 46 67 49 70 26 26 392 594 454 705 9 17 25 44 35 60 84 138
386 700 430 800 5 11 36 78 70 148 34 71 61 130 61 132 0 2 17 41 39 87 90
194 277 662 346 863 20 61 41 119 46 130 14 34 157 481 174 550 12 44 11 40
45 160 98 343 226 934 284 1313 3 15 8 47 12 72 8 53 10 67 19 140 4 30 9 58
11 62 10 16 -38 24 -186 33 -30 2 -55 4 -55 5 0 2 -103 10 -165 13 -25 1 -48
7 -52 12 -5 6 -8 6 -8 -1 0 -6 -10 -10 -22 -8 -13 1 -23 3 -23 4 0 3 -119 9
-261 13 -67 2 -126 7 -133 11 -6 4 -11 2 -11 -4 0 -6 -5 -8 -12 -4 -15 10 -67
11 -61 2 2 -5 -6 -4 -19 0 -13 5 -156 7 -318 5 -162 -1 -306 -2 -320 -2 -14 0
-29 0 -35 0 -5 -1 -50 -3 -100 -5 -49 -2 -90 -5 -90 -5 0 -1 -41 -3 -91 -5
-50 -1 -96 -6 -102 -10 -7 -4 -12 -2 -12 4 0 6 -5 8 -12 4 -6 -4 -32 -8 -57
-10 -66 -4 -305 -24 -356 -30 -16 -2 -52 -6 -80 -9 -27 -3 -70 -7 -95 -10 -25
-3 -61 -8 -80 -10 -19 -2 -53 -6 -75 -10 -22 -3 -56 -7 -75 -10 -19 -2 -48 -6
-65 -9 -16 -2 -50 -8 -75 -11 -25 -3 -58 -9 -75 -12 -16 -3 -43 -7 -60 -9 -16
-1 -41 -5 -55 -8 -14 -4 -41 -8 -60 -11 -19 -3 -46 -7 -60 -10 -14 -3 -40 -8
-59 -11 -18 -3 -43 -8 -55 -10 -11 -2 -37 -7 -56 -10 -19 -4 -43 -11 -52 -16
-12 -6 -18 -5 -18 2 0 7 -6 8 -17 1 -10 -5 -31 -11 -48 -14 -26 -5 -51 -10
-105 -22 -8 -2 -15 -4 -15 -5 0 -2 -65 -12 -82 -13 -7 0 -13 -3 -13 -7 0 -3
-10 -7 -22 -8 -34 -2 -66 -8 -133 -27 -33 -9 -69 -18 -80 -19 -11 -2 -27 -6
-35 -10 -8 -3 -26 -8 -40 -10 -14 -3 -40 -9 -57 -15 -18 -5 -33 -8 -33 -5 0 3
-8 0 -18 -5 -11 -6 -30 -12 -43 -15 -56 -11 -75 -16 -128 -32 -31 -9 -57 -16
-58 -15 -2 0 -21 -6 -43 -14 -22 -8 -40 -12 -40 -8 0 3 -6 1 -12 -5 -7 -6 -16
-11 -20 -11 -5 -1 -9 -1 -10 -2 -4 -1 -36 -9 -50 -12 -7 -1 -18 -6 -24 -9 -6
-4 -21 -9 -35 -12 -57 -12 -70 -15 -82 -23 -6 -4 -18 -8 -26 -10 -8 -1 -26 -5
-40 -9 -14 -4 -29 -7 -33 -6 -5 1 -8 -3 -8 -10 0 -9 -3 -9 -11 -1 -9 9 -9 28
0 75 12 71 24 156 46 341 3 23 7 58 10 77 2 19 7 64 10 100 3 36 8 81 10 100
3 19 7 60 9 90 3 30 8 89 11 131 12 145 14 169 30 519 5 95 5 709 1 824 -8
190 -17 371 -21 396 -2 14 -7 68 -10 120 -3 52 -8 111 -10 130 -2 19 -6 67
-10 105 -3 39 -8 86 -10 105 -3 19 -7 55 -10 80 -9 80 -35 284 -39 310 -3 14
-12 72 -20 130 -15 101 -19 123 -32 200 -3 19 -8 49 -11 65 -22 136 -92 481
-134 655 -17 69 -32 133 -34 143 -2 9 -11 45 -20 80 -9 34 -18 69 -20 77 -9
43 -58 219 -67 243 -6 15 -13 27 -17 26 -3 -1 -28 -8 -56 -18z m-440 -1066 c9
-49 18 -99 20 -110 28 -156 46 -257 50 -290 3 -22 8 -47 10 -55 3 -8 7 -31 9
-50 3 -19 10 -68 15 -108 6 -40 13 -94 16 -120 3 -26 8 -58 10 -72 6 -37 13
-96 21 -170 3 -36 8 -72 9 -81 2 -9 6 -58 10 -109 4 -51 8 -100 10 -109 1 -9
6 -65 10 -126 4 -60 8 -128 10 -150 22 -267 22 -1055 1 -1300 -2 -22 -7 -89
-10 -150 -4 -60 -9 -126 -11 -145 -3 -19 -7 -64 -10 -100 -3 -36 -7 -81 -10
-100 -2 -19 -7 -60 -10 -90 -3 -30 -8 -73 -11 -95 -3 -22 -7 -58 -10 -80 -5
-44 -13 -106 -20 -146 -2 -14 -6 -41 -8 -60 -9 -66 -29 -192 -42 -259 -2 -14
-7 -41 -10 -61 -3 -19 -13 -73 -22 -118 l-17 -82 -57 -23 c-32 -13 -60 -21
-63 -18 -3 3 -5 0 -5 -6 0 -7 -4 -12 -10 -12 -10 0 -111 -43 -142 -60 -10 -6
-25 -10 -33 -10 -8 0 -15 -4 -15 -10 0 -5 -9 -10 -20 -10 -11 0 -20 -5 -20
-11 0 -5 -4 -8 -8 -5 -5 3 -35 -8 -68 -24 -32 -17 -65 -30 -71 -30 -7 0 -13
-4 -13 -10 0 -5 -4 -10 -10 -10 -5 0 -34 -11 -65 -25 -30 -14 -58 -25 -61 -24
-4 0 -10 -3 -13 -8 -6 -8 -219 -114 -224 -111 -1 1 -21 -11 -44 -25 -24 -15
-43 -24 -43 -20 0 5 -4 4 -8 -2 -4 -5 -25 -19 -47 -30 -22 -11 -43 -24 -47
-30 -4 -5 -8 -7 -8 -2 0 4 -18 -4 -39 -17 -21 -14 -42 -22 -45 -19 -3 4 -6 1
-6 -5 0 -7 -7 -12 -15 -12 -8 0 -15 -5 -15 -12 0 -6 -3 -9 -6 -6 -3 3 -31 -9
-62 -27 -31 -19 -77 -44 -102 -57 -25 -13 -46 -26 -48 -30 -2 -5 -10 -8 -18
-8 -8 0 -14 -5 -14 -12 0 -6 -3 -9 -6 -5 -3 3 -34 -12 -69 -34 -34 -21 -67
-39 -74 -39 -6 0 -11 -3 -11 -8 0 -4 -17 -16 -37 -27 -21 -10 -52 -29 -70 -42
-17 -13 -37 -23 -43 -23 -6 0 -13 -7 -16 -15 -4 -8 -10 -13 -14 -10 -4 3 -19
-4 -33 -15 -14 -11 -28 -20 -31 -20 -4 0 -12 -4 -19 -10 -7 -5 -115 -78 -242
-162 -126 -84 -239 -160 -249 -170 -11 -10 -28 -20 -38 -24 -10 -3 -18 -10
-18 -15 0 -5 -5 -9 -11 -9 -6 0 -16 -6 -24 -12 -27 -27 -55 -48 -63 -48 -4 0
-20 -12 -37 -26 -16 -15 -41 -34 -55 -43 -14 -9 -35 -24 -47 -35 -11 -10 -25
-18 -30 -19 -4 0 -12 -5 -18 -12 -5 -7 -39 -34 -75 -61 -36 -26 -66 -52 -68
-56 -2 -4 -8 -8 -12 -8 -5 0 -20 -10 -33 -22 -13 -13 -34 -30 -46 -38 -13 -8
-31 -22 -40 -30 -9 -9 -44 -38 -78 -65 -35 -28 -63 -53 -63 -57 0 -5 -5 -8
-11 -8 -7 0 -22 -11 -34 -24 -13 -14 -26 -22 -29 -19 -3 4 -6 2 -6 -3 0 -6
-33 -37 -72 -69 -40 -33 -89 -74 -108 -92 -19 -17 -48 -43 -65 -58 -64 -56
-159 -143 -236 -217 -45 -43 -83 -78 -84 -78 -5 0 -323 -320 -420 -422 -86
-90 -190 -204 -305 -333 -30 -33 -57 -61 -62 -63 -4 -2 -8 -8 -8 -12 0 -5 -12
-22 -26 -37 -14 -15 -40 -45 -58 -66 -17 -22 -39 -49 -50 -60 -10 -12 -35 -42
-55 -67 -20 -25 -40 -50 -46 -56 -5 -6 -21 -26 -35 -44 -14 -18 -29 -38 -35
-44 -16 -17 -116 -145 -165 -211 -25 -33 -49 -65 -55 -71 -5 -6 -17 -22 -25
-34 -8 -13 -24 -35 -35 -49 -12 -14 -27 -36 -35 -48 -8 -11 -58 -81 -110 -155
-96 -133 -273 -398 -346 -516 -21 -35 -53 -86 -71 -113 -18 -27 -42 -69 -55
-92 -13 -23 -25 -44 -28 -47 -3 -3 -11 -16 -18 -29 -8 -13 -46 -80 -86 -150
-40 -69 -93 -164 -118 -211 -25 -47 -60 -112 -78 -145 -74 -138 -236 -467
-303 -615 -78 -173 -102 -227 -131 -300 -15 -36 -31 -74 -36 -85 -5 -11 -25
-60 -45 -110 -20 -49 -39 -99 -44 -110 -80 -192 -248 -682 -321 -937 -19 -65
-35 -116 -36 -115 -3 3 -19 108 -39 247 -2 14 -6 45 -9 70 -10 68 -15 109 -21
180 -3 36 -8 72 -10 80 -2 8 -7 49 -10 90 -4 41 -8 86 -10 100 -2 14 -7 70
-10 125 -3 55 -8 120 -10 145 -27 308 -27 1268 0 1490 2 19 7 78 10 130 3 52
8 111 10 130 2 19 7 64 10 100 3 36 7 81 10 100 5 41 12 94 20 170 4 30 18
129 31 220 14 91 27 176 29 190 9 64 17 106 20 120 3 8 7 33 10 55 5 32 37
195 90 457 16 78 128 511 171 662 54 188 175 560 235 724 37 102 175 458 189
487 5 11 42 94 81 185 102 235 251 547 316 663 18 33 33 65 33 72 0 7 3 15 8
17 4 2 18 25 32 53 14 27 39 74 56 105 17 30 43 75 56 100 22 38 88 154 158
276 19 32 105 173 144 234 13 19 47 73 77 120 30 47 57 87 62 88 4 2 7 8 7 13
0 5 22 40 50 79 27 39 50 72 50 75 0 3 5 11 10 18 6 7 57 78 115 158 99 140
192 267 218 299 7 8 28 35 47 60 19 25 38 47 42 48 5 2 8 8 8 13 0 5 11 21 24
36 14 16 67 80 118 143 118 145 138 169 221 264 29 33 63 72 77 86 14 15 57
62 95 105 39 42 88 96 110 119 22 23 68 72 103 108 34 37 62 64 62 61 0 -3 10
7 22 23 12 16 26 31 30 34 4 3 67 64 140 135 121 118 244 232 368 343 79 71
93 82 102 82 4 0 8 7 8 17 0 9 3 13 6 10 4 -4 14 1 23 11 9 9 52 46 96 82 112
91 126 103 147 123 10 9 18 15 18 12 0 -5 45 32 82 68 10 9 18 14 18 11 0 -3
6 1 13 8 8 7 26 22 42 33 15 11 38 30 51 43 13 12 28 22 34 22 5 0 10 5 10 10
0 6 6 10 14 10 8 0 16 4 18 8 2 5 41 36 88 70 47 34 95 71 108 81 12 11 22 17
22 15 0 -5 68 44 80 56 3 3 32 23 65 45 33 21 62 42 63 47 2 4 10 8 18 8 8 0
14 5 14 10 0 6 7 10 15 10 8 0 15 5 15 12 0 6 3 9 6 5 3 -3 11 -1 18 4 48 40
61 49 72 49 7 0 14 3 16 8 5 10 146 102 158 102 5 0 10 5 10 11 0 5 4 8 9 5 5
-4 11 -3 13 1 4 9 65 53 73 53 3 0 33 17 65 38 107 67 142 87 151 85 5 -2 9 2
9 7 0 6 7 10 15 10 8 0 15 5 15 10 0 6 7 10 15 10 8 0 15 5 15 11 0 5 4 8 9 4
5 -3 15 0 23 7 7 7 27 20 43 28 17 8 32 17 35 20 3 3 23 14 45 25 22 11 42 22
45 25 3 3 40 23 83 44 42 21 77 43 77 48 0 5 4 7 9 3 5 -3 12 -1 16 5 3 5 15
10 25 10 10 0 20 4 22 8 3 10 234 124 244 122 4 -1 10 2 13 7 5 7 57 35 71 38
3 0 15 6 28 13 12 7 22 9 22 5 0 -4 5 -1 10 7 5 8 13 15 17 16 11 1 48 17 223
97 25 11 47 21 50 22 8 3 82 35 115 50 17 7 37 15 45 17 8 2 18 7 21 11 3 4
16 9 27 10 12 1 22 5 22 10 0 4 5 5 10 2 6 -3 10 -1 10 6 0 7 3 9 7 6 3 -4 12
-2 20 4 7 6 13 8 13 3 0 -5 4 -3 8 3 4 7 17 14 27 16 11 1 29 8 40 14 11 7 23
9 26 5 4 -4 14 -47 24 -97z m4852 -4215 c66 -3 67 -5 47 -72 -3 -10 -8 -30
-10 -45 -3 -16 -10 -46 -15 -68 -5 -22 -12 -51 -15 -65 -2 -14 -12 -54 -20
-89 -9 -36 -18 -73 -20 -84 -2 -10 -6 -27 -9 -37 -3 -10 -7 -27 -9 -37 -14
-68 -130 -470 -198 -678 -111 -345 -274 -780 -382 -1020 -13 -27 -51 -113 -86
-190 -107 -238 -301 -620 -423 -835 -11 -19 -34 -60 -50 -90 -58 -106 -359
-592 -400 -645 -4 -5 -55 -80 -114 -165 -89 -130 -193 -275 -306 -424 -18 -24
-85 -110 -170 -216 -7 -8 -32 -40 -57 -70 -25 -30 -52 -63 -60 -73 -65 -80
-260 -304 -345 -396 -181 -195 -460 -480 -510 -519 -15 -12 -25 -22 -22 -22 4
0 -15 -19 -40 -42 -26 -24 -57 -52 -69 -63 -61 -58 -210 -192 -289 -260 -49
-43 -105 -90 -122 -106 -18 -16 -37 -29 -43 -29 -5 0 -10 -4 -10 -9 0 -4 -28
-30 -62 -57 -35 -27 -71 -57 -80 -66 -10 -10 -18 -16 -18 -13 0 3 -8 -3 -19
-12 -35 -34 -81 -71 -81 -66 0 2 -6 -2 -13 -9 -8 -7 -29 -24 -47 -38 -40 -30
-150 -116 -167 -130 -7 -5 -15 -10 -18 -10 -4 0 -12 -6 -20 -12 -23 -23 -49
-42 -110 -83 -33 -22 -64 -46 -68 -52 -4 -7 -13 -13 -18 -13 -6 0 -17 -6 -24
-12 -32 -29 -45 -38 -53 -38 -4 0 -14 -6 -20 -12 -9 -9 -49 -13 -122 -14 -60
0 -113 -3 -116 -7 -4 -3 -12 -3 -18 0 -15 10 -36 13 -36 5 0 -4 -37 -8 -83 -8
-80 -1 -207 -8 -377 -20 -47 -3 -102 -7 -122 -8 -21 -1 -40 -5 -44 -8 -3 -4
-17 -3 -30 2 -13 5 -26 5 -28 1 -3 -5 -20 -9 -38 -9 -18 0 -35 -1 -38 -2 -7
-3 -43 -7 -120 -14 -65 -6 -97 -10 -180 -20 -25 -4 -63 -8 -85 -11 -137 -17
-147 -18 -162 -28 -8 -5 -13 -3 -13 3 0 6 -5 8 -12 4 -6 -4 -21 -8 -32 -10
-12 -1 -39 -5 -61 -9 -22 -3 -51 -8 -65 -10 -14 -1 -25 -4 -25 -5 0 -1 -13 -3
-30 -5 -16 -2 -39 -5 -50 -8 -11 -3 -40 -8 -65 -11 -25 -3 -56 -9 -70 -12 -14
-3 -34 -7 -45 -8 -11 -1 -26 -5 -33 -10 -7 -4 -16 -6 -18 -3 -3 2 -22 1 -42
-4 -20 -5 -53 -11 -72 -15 -19 -3 -43 -7 -52 -10 -9 -3 -27 -7 -40 -10 -13 -2
-34 -7 -48 -10 -14 -2 -36 -7 -50 -10 -14 -3 -33 -7 -42 -10 -23 -7 -57 -13
-95 -18 -18 -3 -36 -7 -41 -10 -5 -3 -20 -7 -35 -10 -15 -4 -39 -8 -54 -12
-15 -3 -30 -7 -33 -9 -4 -2 -20 -7 -36 -9 -32 -6 -41 -8 -134 -32 -36 -9 -72
-18 -80 -22 -16 -6 -139 -39 -179 -48 -14 -3 -28 -7 -33 -10 -4 -3 -18 -7 -30
-10 -23 -5 -51 -12 -55 -13 -2 -1 -5 -1 -8 -1 -2 -1 -35 -12 -71 -25 -37 -13
-71 -22 -76 -19 -4 3 -8 0 -8 -7 0 -7 -3 -10 -6 -6 -4 3 -22 0 -40 -8 -19 -8
-34 -12 -34 -9 0 2 -13 -2 -30 -11 -16 -9 -30 -13 -30 -9 0 4 -7 1 -15 -6 -8
-7 -15 -10 -15 -6 0 4 -13 0 -30 -9 -16 -8 -31 -15 -32 -14 -4 3 -76 -20 -103
-31 -20 -9 -96 -34 -105 -35 -7 0 -68 -24 -107 -41 -17 -8 -36 -14 -42 -14 -6
0 -19 -4 -29 -9 -9 -5 -44 -19 -77 -31 -33 -12 -73 -28 -90 -35 -42 -18 -79
-29 -87 -27 -5 1 -8 -3 -8 -9 0 -5 -5 -7 -10 -4 -6 3 -10 1 -10 -6 0 -7 -3
-10 -6 -7 -5 5 -42 -8 -119 -42 -25 -11 -87 -36 -97 -39 -4 -1 -43 -18 -85
-38 -79 -36 -124 -55 -133 -58 -3 0 -32 -13 -65 -29 -233 -108 -400 -190 -403
-198 -2 -5 -8 -8 -13 -8 -18 0 -159 -72 -159 -81 0 -5 -3 -8 -7 -8 -16 3 -73
-23 -73 -34 0 -6 -3 -8 -6 -5 -3 4 -33 -9 -66 -28 -33 -19 -62 -34 -65 -34 -2
0 -11 -7 -20 -15 -8 -8 -19 -13 -24 -10 -5 4 -9 1 -9 -5 0 -6 -4 -8 -10 -5 -5
3 -10 2 -10 -3 0 -8 -56 -39 -74 -40 -5 0 -12 -4 -15 -9 -6 -8 -28 -21 -93
-57 -21 -11 -38 -23 -38 -28 0 -4 -6 -8 -13 -8 -7 0 -29 -11 -48 -25 -20 -13
-39 -21 -43 -18 -3 4 -6 1 -6 -5 0 -7 -6 -12 -14 -12 -8 0 -16 -3 -18 -7 -1
-5 -43 -32 -93 -62 -133 -80 -350 -222 -353 -232 -2 -5 -8 -9 -13 -9 -9 0
-127 -77 -139 -91 -3 -3 -32 -23 -65 -44 -33 -22 -63 -44 -67 -50 -4 -5 -8 -6
-8 -2 0 4 -10 -1 -22 -13 -12 -11 -25 -20 -29 -20 -4 0 3 39 17 88 13 48 42
159 64 247 23 88 46 178 52 200 6 22 16 65 23 95 11 51 64 253 99 380 150 543
380 1167 625 1695 50 107 280 566 291 580 4 6 29 51 55 100 26 50 56 102 66
117 11 14 19 29 19 33 0 9 232 394 299 495 31 47 58 90 61 95 7 14 84 129 90
135 3 3 23 32 45 65 110 164 331 464 492 664 51 64 98 123 105 132 12 15 91
108 113 133 6 6 37 43 70 81 111 129 104 121 259 290 120 131 520 529 637 635
121 110 122 111 184 165 31 28 62 55 68 60 7 6 46 39 87 74 41 35 78 69 82 75
4 6 8 8 8 4 0 -4 15 6 33 23 17 16 95 80 172 141 77 61 143 115 146 120 3 5 8
8 11 6 4 -3 66 43 94 70 8 7 14 11 14 8 0 -3 9 2 19 12 27 23 38 32 96 72 28
19 62 44 76 55 14 11 36 27 49 35 12 8 42 30 66 48 24 18 44 29 44 25 0 -4 4
-3 8 3 7 11 169 124 177 124 5 0 98 63 105 71 3 3 12 9 20 12 8 4 27 15 41 25
15 9 50 31 78 47 28 17 51 33 51 38 0 4 6 7 14 7 8 0 21 6 28 13 8 6 26 19 41
27 14 8 82 47 149 87 68 39 143 83 168 97 25 15 57 31 73 37 15 6 27 15 27 20
0 5 8 9 18 9 11 0 27 9 37 20 10 11 21 17 26 15 4 -3 13 0 21 7 7 7 19 14 26
16 7 1 31 14 52 27 22 14 40 22 40 18 0 -5 4 -3 8 2 9 13 164 91 174 88 5 -2
8 2 8 8 0 5 5 7 10 4 6 -3 10 -3 10 2 0 4 15 14 33 22 17 8 77 36 133 63 56
26 106 48 112 48 7 0 12 5 12 10 0 6 9 10 20 10 11 0 20 5 20 11 0 5 4 8 9 4
6 -3 24 3 42 14 18 11 36 18 41 15 4 -3 8 0 8 5 0 6 4 11 9 11 5 0 22 5 38 12
15 6 31 11 36 10 4 -1 7 3 7 8 0 5 3 9 8 8 4 -2 32 8 62 22 30 13 58 23 63 22
4 -1 7 3 7 10 0 6 3 9 6 5 4 -3 21 1 38 10 17 10 35 16 40 15 5 -2 12 2 16 8
3 6 16 12 28 15 12 2 64 20 114 41 51 20 99 37 106 37 6 0 12 4 12 9 0 4 3 7
8 6 4 0 14 1 22 4 47 18 56 21 65 24 6 1 24 7 40 14 17 6 32 12 35 12 3 0 13
4 23 10 10 5 26 11 35 13 9 2 31 9 47 16 17 7 37 13 45 14 8 1 29 7 45 14 17
7 35 14 40 15 6 2 18 6 27 10 9 4 25 9 35 11 10 2 19 4 21 5 1 2 7 4 12 5 6 1
11 3 13 5 2 2 23 7 47 12 8 2 20 6 25 9 6 4 24 10 40 14 17 5 33 9 38 10 13 4
17 5 25 6 4 0 22 7 40 14 17 8 32 12 32 10 0 -2 26 5 57 16 32 11 68 20 80 21
13 2 23 5 23 8 0 3 8 6 18 7 9 1 58 13 107 27 50 13 104 28 120 31 33 7 57 12
65 15 3 1 8 2 13 1 4 0 7 2 7 6 0 5 15 9 33 10 45 4 65 8 73 16 4 4 17 7 29 7
11 0 26 5 33 12 9 9 12 9 12 0 0 -9 5 -10 18 -3 19 10 77 23 105 22 9 0 17 4
17 9 0 5 9 7 20 5 11 -2 20 0 20 4 0 4 10 7 23 6 12 -1 32 2 44 6 13 5 38 9
58 11 19 1 35 5 35 8 0 3 10 6 23 7 12 0 38 4 57 8 19 4 43 7 53 7 9 0 17 3
17 7 0 5 14 7 30 6 17 -1 32 1 35 5 2 3 20 6 40 5 19 0 35 3 35 7 0 4 9 5 20
3 11 -2 22 0 25 4 2 5 16 7 30 6 14 -2 25 0 25 4 0 4 15 7 33 8 31 1 102 10
102 13 0 2 46 7 120 14 22 2 40 5 40 6 0 2 81 11 128 13 15 1 27 5 27 8 0 4
12 7 28 6 32 0 143 10 205 18 24 3 70 8 103 10 32 2 59 4 59 5 0 2 155 11 232
13 35 1 63 4 63 7 0 3 52 5 116 5 64 0 117 2 119 5 3 5 614 5 722 0z m-3990
-7743 c51 -1 93 -5 93 -8 0 -8 33 -5 48 5 6 4 12 4 12 -1 0 -4 26 -9 58 -9 55
-1 150 -8 297 -20 39 -4 87 -7 107 -8 21 0 38 -3 38 -6 0 -3 19 -6 43 -6 23
-1 65 -4 92 -7 28 -4 75 -9 105 -12 75 -9 98 -13 110 -20 5 -3 10 -1 10 5 0 6
5 8 13 3 6 -4 17 -8 22 -9 39 -6 173 -23 220 -29 17 -2 30 -4 30 -5 0 -3 40
-10 70 -12 17 -1 34 -4 40 -7 5 -2 25 -6 45 -8 39 -4 75 -11 75 -13 0 -1 14
-4 30 -6 42 -5 80 -12 80 -14 0 -1 11 -3 25 -5 23 -3 46 -8 110 -21 14 -3 36
-7 50 -9 14 -2 25 -4 25 -5 0 -1 7 -3 15 -5 56 -11 87 -17 103 -18 9 -1 17 -5
17 -10 0 -4 4 -6 9 -3 5 3 22 2 37 -3 37 -11 183 -44 186 -41 2 1 17 -4 33
-10 17 -7 44 -14 60 -17 37 -7 46 -9 65 -16 14 -5 123 -34 158 -42 9 -2 42
-11 72 -20 56 -17 113 -33 140 -40 8 -2 15 -4 15 -5 0 -1 11 -3 24 -6 14 -2
30 -9 38 -15 7 -6 13 -9 13 -6 0 3 32 -5 70 -18 39 -13 70 -21 70 -18 0 3 7 0
15 -7 8 -7 15 -9 15 -5 0 4 6 2 13 -4 8 -6 17 -8 20 -4 4 3 7 0 7 -7 0 -7 3
-11 6 -7 3 3 30 -3 59 -13 29 -10 56 -16 59 -13 3 4 6 1 6 -5 0 -7 6 -12 14
-12 8 0 27 -5 43 -12 34 -14 31 -13 68 -23 17 -4 36 -12 43 -18 6 -5 12 -6 12
-3 0 4 10 1 23 -6 12 -6 31 -13 41 -15 11 -2 25 -8 33 -14 7 -6 13 -8 13 -4 0
4 11 0 25 -9 14 -9 25 -14 25 -11 0 3 13 -1 30 -10 16 -8 33 -16 37 -17 5 0
19 -5 33 -11 55 -21 66 -25 85 -32 11 -3 21 -6 23 -6 1 1 18 -8 39 -19 20 -10
40 -17 45 -14 4 3 8 0 8 -5 0 -6 9 -11 19 -11 11 0 23 -4 26 -10 3 -5 15 -10
26 -10 10 0 19 -4 19 -10 0 -5 3 -9 8 -8 4 2 27 -6 52 -16 25 -11 48 -19 53
-18 4 1 7 -3 7 -9 0 -5 4 -8 9 -4 5 3 17 -2 25 -11 9 -8 16 -12 16 -8 0 5 5 3
12 -4 7 -7 20 -12 30 -12 10 0 18 -5 18 -11 0 -5 4 -8 9 -4 5 3 12 1 16 -5 4
-6 11 -8 16 -5 5 4 9 1 9 -4 0 -6 5 -11 11 -11 6 0 38 -13 72 -29 34 -15 85
-39 112 -52 28 -12 53 -28 57 -33 4 -6 8 -8 8 -4 0 4 46 -16 103 -45 56 -28
105 -50 110 -49 4 1 7 -3 7 -9 0 -5 5 -7 10 -4 6 3 10 2 10 -4 0 -9 26 -21 44
-20 5 0 12 -3 15 -8 6 -8 30 -21 135 -77 27 -14 54 -30 61 -36 6 -5 15 -7 18
-3 4 3 7 1 7 -6 0 -7 5 -9 10 -6 6 3 10 3 10 -2 0 -4 27 -21 60 -38 33 -16 60
-33 60 -37 0 -4 9 -8 20 -8 11 0 20 -4 20 -9 0 -5 9 -12 19 -16 11 -3 36 -17
55 -30 20 -13 36 -22 36 -19 0 3 12 -4 26 -15 15 -12 33 -21 40 -21 8 0 14 -4
14 -8 0 -4 15 -16 33 -26 113 -65 291 -178 295 -188 2 -5 8 -8 14 -8 5 0 24
-10 41 -22 17 -13 39 -27 48 -33 51 -32 85 -55 96 -64 7 -6 16 -11 22 -11 5 0
11 -4 13 -8 2 -5 32 -28 68 -52 36 -24 67 -46 70 -49 3 -3 13 -10 22 -16 9 -5
62 -44 118 -85 56 -41 109 -79 118 -85 9 -5 19 -13 22 -16 3 -3 37 -30 75 -59
39 -29 73 -58 77 -64 4 -6 8 -8 8 -3 0 4 8 -1 18 -10 10 -10 36 -31 57 -48 21
-16 53 -42 69 -57 17 -16 33 -28 37 -28 3 0 22 -15 41 -32 19 -18 46 -42 60
-53 66 -52 113 -93 144 -122 19 -18 37 -33 40 -33 3 0 15 -10 28 -22 13 -13
56 -52 96 -88 40 -36 89 -81 110 -100 20 -19 77 -73 127 -119 50 -46 89 -89
87 -95 -2 -6 -29 -27 -59 -46 -30 -19 -55 -38 -55 -42 0 -5 -5 -8 -10 -8 -9 0
-112 -70 -146 -98 -5 -5 -21 -15 -35 -22 -13 -7 -26 -16 -29 -19 -3 -4 -52
-37 -110 -74 -58 -37 -109 -70 -115 -74 -23 -18 -61 -40 -69 -41 -5 0 -12 -6
-17 -14 -5 -7 -12 -13 -16 -13 -4 -1 -26 -12 -48 -26 -96 -62 -195 -119 -205
-119 -5 0 -10 -3 -10 -8 0 -4 -34 -25 -75 -47 -41 -21 -75 -43 -75 -47 0 -4
-9 -8 -19 -8 -11 0 -23 -5 -27 -11 -3 -6 -26 -20 -50 -31 -24 -10 -44 -23 -44
-28 0 -6 -3 -9 -7 -8 -5 1 -37 -13 -73 -32 -36 -19 -68 -33 -72 -32 -5 1 -8
-2 -8 -7 0 -4 -26 -20 -57 -35 -32 -15 -65 -30 -73 -35 -53 -29 -69 -37 -105
-55 -22 -11 -46 -21 -54 -22 -8 -2 -17 -7 -20 -12 -3 -5 -18 -12 -33 -16 -16
-3 -28 -11 -28 -16 0 -6 -7 -10 -15 -10 -8 0 -23 -4 -33 -10 -19 -10 -167 -80
-274 -128 -38 -17 -68 -29 -68 -26 0 3 -10 -2 -22 -10 -12 -9 -30 -16 -40 -16
-10 0 -18 -4 -18 -10 0 -5 -6 -10 -12 -10 -7 0 -26 -7 -42 -15 -16 -9 -37 -17
-45 -18 -9 -2 -32 -10 -51 -19 -49 -22 -192 -80 -205 -82 -5 -2 -26 -9 -45
-18 -29 -12 -102 -39 -120 -43 -3 -1 -18 -7 -33 -13 -16 -7 -30 -12 -32 -12
-2 0 -16 -5 -32 -12 -15 -6 -30 -12 -33 -13 -3 0 -36 -12 -75 -25 -38 -13 -72
-25 -75 -25 -3 0 -30 -9 -60 -20 -30 -11 -57 -20 -60 -20 -34 -9 -67 -19 -75
-24 -5 -3 -16 -7 -22 -8 -7 -2 -19 -4 -25 -6 -7 -1 -19 -6 -25 -10 -7 -5 -17
-6 -22 -3 -5 4 -11 2 -13 -4 -1 -5 -15 -11 -30 -12 -16 -1 -28 -5 -28 -9 0 -3
-6 -6 -12 -7 -7 0 -23 -3 -35 -6 -13 -3 -31 -8 -40 -10 -10 -2 -29 -9 -43 -14
-14 -5 -27 -10 -30 -10 -20 -2 -67 -17 -77 -25 -7 -5 -13 -7 -13 -4 0 3 -30
-3 -67 -13 -37 -10 -71 -17 -74 -14 -4 2 -10 0 -13 -5 -6 -9 -83 -27 -98 -23
-5 1 -8 -2 -8 -6 0 -5 -6 -9 -12 -9 -15 -1 -40 -6 -113 -23 -27 -6 -59 -14
-70 -16 -11 -2 -31 -7 -45 -10 -14 -3 -34 -7 -45 -9 -11 -2 -30 -6 -42 -9 -46
-12 -68 -17 -88 -21 -11 -2 -45 -8 -75 -14 -30 -6 -66 -14 -80 -16 -14 -3 -36
-7 -50 -10 -14 -3 -36 -7 -50 -10 -14 -2 -43 -7 -65 -11 -22 -4 -48 -7 -57 -8
-10 0 -18 -3 -18 -6 0 -3 -10 -6 -22 -7 -23 0 -81 -9 -128 -18 -14 -3 -44 -7
-67 -9 -23 -2 -45 -6 -50 -9 -4 -3 -35 -8 -68 -12 -33 -4 -71 -8 -85 -10 -14
-2 -25 -4 -25 -5 0 -1 -18 -3 -40 -5 -22 -1 -60 -6 -85 -10 -25 -4 -65 -9 -90
-10 -25 -2 -45 -4 -45 -5 0 -1 -20 -3 -45 -5 -25 -2 -45 -4 -45 -5 0 -2 -108
-11 -155 -13 -19 -1 -38 -6 -42 -12 -5 -6 -8 -5 -8 3 0 7 -4 10 -10 7 -12 -7
-130 -17 -217 -19 -35 0 -63 -3 -63 -6 0 -3 -46 -5 -103 -5 -56 1 -112 -3
-124 -7 -13 -4 -25 -3 -28 3 -4 5 -12 6 -18 2 -16 -10 -596 -12 -623 -2 -12 4
-25 5 -28 1 -8 -8 -49 -11 -60 -4 -18 10 -76 8 -76 -2 0 -7 -3 -8 -8 -1 -4 6
-32 11 -62 11 -66 2 -236 12 -340 20 -139 11 -165 13 -165 14 0 1 -25 3 -55 5
-30 1 -73 6 -95 9 -22 4 -65 9 -95 12 -30 2 -68 6 -85 9 -16 2 -52 6 -80 9
-27 3 -66 8 -85 11 -19 3 -48 8 -65 10 -16 2 -43 6 -60 8 -29 5 -102 15 -155
22 -14 2 -25 4 -25 5 0 3 -41 10 -70 12 -16 1 -34 4 -40 7 -5 3 -21 6 -35 8
-14 1 -32 4 -40 6 -8 2 -35 7 -60 11 -46 8 -83 14 -87 15 -25 8 -192 43 -218
46 -16 2 -30 4 -30 5 0 2 -9 4 -20 6 -35 5 -78 15 -85 19 -6 4 -51 14 -90 20
-8 1 -22 5 -30 8 -8 4 -27 9 -42 12 -61 11 -79 16 -103 25 -14 5 -29 9 -33 9
-4 -1 -10 0 -14 1 -5 1 -12 4 -18 5 -5 1 -11 3 -12 5 -2 1 -10 3 -18 5 -55 13
-204 53 -260 70 -30 9 -62 17 -70 20 -8 2 -28 8 -45 15 -16 6 -32 12 -35 12
-3 0 -9 2 -15 4 -14 4 -128 38 -137 40 -5 1 -10 3 -13 4 -3 1 -9 3 -14 4 -5 0
-13 4 -17 8 -4 5 -16 8 -26 8 -10 0 -26 4 -36 9 -20 10 -81 31 -99 35 -7 1
-16 5 -19 9 -4 4 -18 7 -31 7 -13 0 -23 5 -23 10 0 6 -10 10 -23 10 -13 0 -27
3 -31 7 -3 4 -14 8 -22 9 -9 1 -23 6 -32 10 -9 4 -20 8 -24 9 -5 2 -10 4 -13
5 -3 1 -8 3 -12 5 -5 1 -21 8 -38 15 -16 7 -34 14 -40 14 -12 1 -123 44 -147
57 -10 5 -25 9 -33 9 -8 0 -15 5 -15 11 0 5 -4 8 -9 4 -6 -3 -26 4 -45 15 -20
11 -38 20 -41 20 -3 0 -21 7 -41 15 -20 8 -40 15 -45 15 -5 0 -24 9 -44 20
-19 11 -35 17 -35 14 0 -3 -12 1 -27 10 -38 20 -107 50 -111 47 -1 -1 -22 10
-47 24 -25 13 -45 23 -45 20 0 -2 -27 9 -59 26 -33 16 -65 29 -70 29 -6 0 -11
5 -11 12 0 6 -2 9 -5 6 -3 -3 -56 20 -118 50 -62 31 -114 56 -117 57 -13 3
-332 167 -340 175 -3 3 -27 16 -55 30 -84 42 -280 154 -283 162 -2 5 -8 8 -14
8 -6 0 -43 20 -82 45 -40 25 -78 45 -84 45 -7 0 -12 5 -12 10 0 6 -6 10 -14
10 -8 0 -16 3 -18 8 -1 4 -32 25 -68 46 -36 22 -68 44 -71 49 -3 5 -9 8 -12 8
-11 -1 -67 34 -67 42 0 4 -7 7 -15 7 -8 0 -15 5 -15 10 0 6 -5 10 -10 10 -9 0
-87 47 -100 60 -3 3 -39 27 -80 55 -41 27 -77 52 -80 55 -13 14 -70 50 -79 50
-5 0 -11 3 -13 8 -4 8 -115 92 -123 92 -3 0 -13 7 -23 16 -15 14 -88 69 -158
119 -15 11 -32 25 -38 30 -6 6 -44 35 -84 65 -39 30 -72 58 -72 62 0 5 -5 8
-11 8 -6 0 -16 6 -23 13 -7 6 -28 23 -46 37 -18 14 -42 33 -54 43 -11 10 -41
36 -66 57 -25 21 -55 47 -66 57 -12 10 -43 36 -70 58 -26 22 -57 49 -70 60
-12 11 -45 40 -73 64 -42 36 -85 75 -144 129 -4 4 -15 15 -25 24 -9 10 -57 55
-105 101 l-89 83 61 44 c34 25 61 48 61 53 0 4 5 5 10 2 6 -3 13 1 16 9 3 9
10 16 15 16 4 0 28 14 51 30 24 17 54 38 68 48 14 9 49 34 78 54 28 21 52 36
52 33 0 -3 10 4 23 15 12 12 37 28 55 37 17 8 32 20 32 25 0 5 5 6 10 3 6 -3
10 -1 10 4 0 6 7 11 15 11 8 0 15 5 15 10 0 6 7 10 15 10 8 0 15 4 15 9 0 5
10 13 22 17 12 3 26 10 32 15 24 20 91 61 113 70 13 5 23 13 23 19 0 5 6 10
13 10 7 0 36 15 65 34 28 19 52 33 52 30 0 -3 12 3 28 14 28 20 80 49 192 110
36 20 67 39 70 42 3 4 16 11 30 15 14 4 32 13 40 20 8 7 38 23 65 36 28 13 53
28 57 34 5 7 8 7 8 0 0 -7 3 -7 8 0 7 11 73 43 83 41 3 0 13 7 23 17 10 9 21
15 26 12 5 -3 10 -1 12 3 1 4 39 26 83 47 89 43 82 40 113 50 12 4 22 11 22
16 0 5 3 9 8 8 15 -2 52 14 52 23 0 5 4 7 9 3 5 -3 12 -1 16 5 3 5 15 10 26
10 10 0 19 4 19 9 0 5 12 12 28 17 15 4 29 8 32 9 3 1 34 15 70 32 118 56 145
67 153 65 4 -1 7 3 7 8 0 5 3 9 8 8 7 -1 21 4 90 33 23 10 42 15 42 11 0 -4 4
-2 8 4 10 14 88 44 96 37 3 -4 6 -2 6 4 0 10 45 27 53 21 2 -2 11 3 20 11 10
7 17 10 17 5 0 -5 4 -4 8 2 4 6 79 36 167 68 88 31 177 64 198 73 22 9 46 18
55 19 10 1 64 19 122 39 58 20 110 37 115 38 6 2 16 6 23 11 7 4 16 5 19 2 3
-3 11 -2 17 3 7 6 24 12 39 15 15 2 31 7 37 11 11 7 47 16 68 17 6 1 12 4 12
8 0 3 8 7 18 8 30 3 47 7 59 15 6 4 23 8 37 9 14 1 26 5 26 9 0 3 6 6 13 7 41
3 57 7 57 14 0 3 8 7 18 6 21 0 47 7 85 21 15 6 27 8 27 6 0 -2 11 0 25 5 14
5 36 12 48 14 12 3 32 7 45 10 12 4 30 8 40 10 9 3 46 12 82 21 36 9 76 18 89
21 13 3 50 11 83 19 32 7 58 11 58 9 0 -3 6 -2 13 3 6 4 17 8 22 9 9 2 29 5
110 20 17 3 38 10 48 15 11 7 17 6 17 -1 0 -7 6 -8 18 -2 18 10 60 19 125 28
48 7 72 12 72 14 0 1 11 3 25 5 27 3 76 12 125 21 16 4 43 8 60 9 16 2 39 5
50 8 29 7 137 20 158 19 9 0 17 3 17 7 0 4 15 6 33 6 17 -1 42 2 55 7 16 5 21
5 16 -3 -4 -8 -1 -8 12 -1 11 5 46 13 79 16 33 4 85 10 115 13 30 3 72 7 92 7
21 1 38 3 38 6 0 5 66 10 177 14 24 0 43 3 43 6 0 4 73 9 195 13 22 0 43 6 47
11 5 8 8 8 8 0 0 -7 11 -9 28 -7 15 2 87 6 160 8 74 2 135 5 137 7 4 3 551 0
742 -5z m-6942 -3277 c3 0 16 -10 28 -21 12 -12 65 -56 117 -98 52 -42 97 -79
100 -82 3 -3 64 -50 135 -105 72 -54 136 -104 142 -110 7 -7 28 -22 48 -34 19
-12 35 -26 35 -31 0 -6 4 -8 8 -5 5 3 22 -7 39 -22 16 -15 54 -43 84 -62 30
-19 55 -38 57 -42 2 -4 21 -18 43 -30 21 -12 39 -25 39 -30 0 -4 6 -8 14 -8 8
0 16 -3 18 -7 4 -10 172 -123 211 -142 15 -7 27 -17 27 -21 0 -4 14 -13 30
-20 17 -7 30 -16 30 -21 0 -5 7 -9 15 -9 8 0 15 -4 15 -10 0 -5 4 -10 10 -10
9 0 123 -69 147 -90 7 -5 14 -10 17 -10 8 0 111 -64 117 -73 3 -5 8 -8 10 -6
2 1 23 -10 46 -24 24 -15 47 -27 53 -27 5 0 10 -4 10 -9 0 -5 8 -11 18 -14 22
-8 97 -50 117 -67 8 -7 15 -9 15 -4 0 5 4 5 8 -1 4 -5 16 -15 27 -21 86 -46
111 -60 115 -64 14 -14 130 -70 130 -63 0 4 5 0 11 -9 5 -10 19 -18 29 -18 10
0 21 -4 24 -8 3 -4 31 -21 63 -37 32 -16 61 -33 64 -38 3 -5 10 -9 15 -9 19
-1 104 -42 104 -50 0 -5 5 -6 10 -3 6 3 10 1 10 -6 0 -7 3 -10 6 -7 3 4 36 -9
74 -28 106 -52 199 -94 210 -94 6 0 10 -5 10 -11 0 -5 5 -7 10 -4 6 3 10 1 10
-5 0 -6 4 -9 9 -5 5 3 17 -3 27 -12 10 -10 19 -17 21 -16 2 2 21 -4 43 -13 21
-9 42 -15 46 -14 4 1 10 -3 13 -8 3 -6 15 -12 26 -14 11 -1 22 -5 25 -8 3 -3
37 -19 75 -34 39 -16 94 -40 123 -53 29 -12 57 -23 62 -23 6 0 18 -4 28 -10
14 -8 57 -27 82 -35 10 -3 46 -18 87 -35 23 -10 44 -16 47 -12 3 3 6 0 6 -7 0
-7 4 -10 9 -6 5 3 12 1 16 -5 3 -5 17 -10 30 -10 13 0 27 -4 30 -10 3 -5 17
-10 31 -10 13 0 24 -3 24 -8 0 -8 120 -49 133 -44 4 1 7 -3 7 -8 0 -5 3 -9 8
-8 4 0 14 -2 22 -5 21 -9 323 -109 335 -111 6 -1 16 -5 23 -9 6 -5 16 -6 21
-2 5 3 15 -1 23 -8 7 -7 26 -14 42 -15 16 -1 35 -7 41 -12 7 -6 17 -10 21 -9
5 1 22 -3 37 -9 16 -7 36 -12 46 -12 10 0 21 -3 25 -7 3 -4 12 -8 19 -9 7 -1
39 -9 72 -19 33 -9 76 -20 95 -25 19 -4 51 -13 70 -20 19 -6 48 -14 63 -16 16
-2 33 -6 38 -9 5 -4 19 -8 31 -10 11 -3 78 -19 147 -36 143 -35 156 -38 191
-44 36 -7 65 -13 65 -15 0 -2 14 -5 60 -13 42 -8 86 -17 115 -23 14 -3 33 -6
43 -7 9 -1 17 -4 17 -7 0 -3 12 -6 28 -7 15 -1 41 -5 57 -8 17 -3 41 -7 55 -9
14 -3 26 -5 28 -6 1 -2 11 -4 22 -5 11 -1 21 -4 23 -5 1 -1 16 -3 32 -4 17 -1
36 -5 43 -9 6 -5 17 -5 22 -2 6 3 10 0 11 -7 0 -9 2 -10 5 -1 4 8 13 9 30 3
13 -5 24 -7 24 -4 0 3 6 2 12 -3 7 -4 24 -8 38 -10 34 -3 95 -11 95 -13 0 -3
77 -14 175 -26 19 -2 49 -6 65 -8 27 -4 51 -7 170 -22 22 -2 58 -6 80 -9 22
-2 63 -6 90 -10 78 -9 144 -15 217 -17 38 -2 68 -5 68 -8 0 -3 24 -6 53 -7 28
0 93 -4 142 -7 155 -11 354 -18 530 -20 100 0 173 -5 178 -11 4 -7 10 -6 15 1
4 6 33 9 67 7 77 -4 57 -4 225 2 235 7 534 22 620 30 30 3 87 8 125 11 98 7
150 12 150 14 0 0 27 3 60 6 113 9 140 12 140 14 0 1 14 3 30 4 34 4 128 15
165 20 52 8 136 18 165 21 17 2 30 4 30 5 0 1 11 3 25 5 14 2 41 5 60 8 19 3
55 9 80 12 25 4 59 10 75 14 17 4 38 7 48 5 9 -1 17 1 17 5 0 4 12 9 28 10 15
1 42 2 60 4 17 1 32 4 32 7 0 3 12 7 28 8 38 3 55 7 67 13 6 3 23 6 38 7 30 2
62 -27 232 -213 44 -48 89 -97 101 -109 11 -11 49 -54 85 -95 35 -41 71 -82
79 -91 8 -9 35 -40 60 -70 25 -29 57 -67 72 -84 23 -27 217 -270 268 -336 138
-179 276 -370 390 -540 46 -69 87 -126 92 -128 4 -2 8 -9 8 -16 0 -7 13 -30
30 -52 16 -21 30 -44 30 -51 0 -6 4 -13 8 -15 5 -1 37 -50 73 -108 80 -130 87
-141 95 -160 4 -8 10 -17 13 -20 6 -5 14 -19 59 -99 13 -25 33 -58 43 -73 11
-14 19 -29 19 -32 0 -3 31 -61 69 -128 189 -338 445 -883 608 -1295 4 -10 -13
-17 -72 -27 -53 -9 -92 -17 -115 -22 -44 -9 -75 -15 -90 -15 -8 0 -22 -3 -30
-6 -8 -3 -22 -7 -30 -8 -57 -9 -112 -18 -155 -26 -27 -6 -68 -12 -90 -14 -22
-3 -51 -7 -64 -9 -13 -3 -49 -8 -80 -11 -31 -4 -63 -8 -71 -11 -8 -2 -38 -7
-65 -10 -28 -3 -66 -8 -85 -10 -19 -2 -48 -5 -65 -7 -16 -1 -36 -6 -42 -10 -8
-5 -13 -3 -13 5 0 8 -3 9 -8 3 -4 -5 -25 -11 -47 -12 -86 -6 -160 -12 -160
-13 0 -1 -16 -3 -35 -5 -19 -1 -75 -6 -125 -10 -49 -4 -117 -8 -150 -9 -33 0
-63 -5 -67 -11 -5 -6 -8 -5 -8 2 0 9 -7 10 -22 5 -13 -5 -62 -8 -110 -8 -53 1
-88 -3 -88 -9 0 -5 -5 -3 -10 5 -5 8 -10 11 -10 5 0 -6 -49 -10 -128 -10 -70
1 -133 -3 -139 -8 -7 -5 -13 -6 -13 -1 0 11 -90 11 -107 1 -7 -5 -13 -5 -13 0
0 10 -91 10 -107 0 -7 -5 -13 -5 -13 0 0 4 -60 9 -133 10 -187 2 -333 9 -346
17 -6 4 -11 2 -11 -4 0 -6 -5 -8 -10 -5 -9 6 -55 10 -215 20 -27 2 -50 4 -50
5 0 1 -27 3 -60 5 -33 2 -80 6 -105 9 -25 2 -74 7 -110 11 -78 7 -120 14 -132
21 -4 3 -8 0 -8 -6 0 -6 -5 -8 -12 -3 -7 4 -24 9 -38 10 -23 2 -40 5 -132 18
-18 2 -50 7 -71 9 -20 3 -54 8 -75 11 -20 3 -50 7 -67 9 -16 2 -30 5 -30 6 0
1 -11 3 -25 5 -84 10 -125 17 -139 23 -9 4 -28 7 -43 6 -16 0 -28 2 -28 5 0 4
-10 7 -22 8 -13 0 -50 6 -83 13 -33 6 -70 13 -82 13 -13 1 -23 4 -23 8 0 4
-11 6 -25 4 -14 -1 -25 1 -25 5 0 5 -8 7 -17 5 -10 -1 -25 1 -33 5 -8 4 -31
10 -50 13 -19 3 -46 8 -60 12 -14 3 -36 8 -50 10 -14 2 -36 7 -50 10 -14 3
-32 8 -40 10 -8 2 -15 4 -15 6 0 1 -9 3 -20 4 -11 1 -40 8 -65 15 -25 7 -52
13 -60 15 -8 2 -44 11 -80 20 -36 9 -70 18 -77 19 -7 1 -16 5 -19 9 -4 4 -20
7 -35 7 -15 0 -30 4 -33 9 -4 5 -14 8 -24 6 -9 -1 -23 2 -29 8 -7 5 -13 6 -13
2 0 -4 -7 -2 -15 5 -8 6 -19 9 -25 5 -5 -3 -10 -2 -10 3 0 5 -6 9 -12 10 -24
1 -72 13 -82 20 -6 3 -22 8 -36 10 -13 2 -30 8 -37 14 -7 6 -13 8 -13 5 0 -4
-19 1 -42 9 -24 9 -50 17 -58 19 -8 2 -37 11 -65 21 -27 9 -57 18 -65 19 -8 1
-25 6 -36 13 -12 6 -24 8 -28 5 -3 -3 -6 -2 -6 4 0 5 -6 10 -12 11 -24 1 -57
11 -77 22 -12 6 -21 7 -21 3 0 -4 -5 -2 -12 5 -7 7 -22 12 -35 12 -13 0 -23 5
-23 11 0 5 -4 8 -9 4 -5 -3 -12 -1 -16 5 -4 6 -11 8 -16 5 -5 -4 -9 -2 -9 2 0
5 -12 10 -26 11 -15 1 -32 6 -39 12 -6 5 -20 11 -31 13 -10 2 -36 11 -58 20
-21 9 -45 17 -52 17 -8 0 -14 5 -14 10 0 6 -3 9 -7 9 -5 -1 -10 0 -13 1 -3 1
-12 3 -20 5 -8 2 -28 9 -45 16 -16 7 -32 13 -35 14 -3 1 -18 7 -33 13 -16 7
-34 12 -42 12 -7 0 -15 5 -17 10 -2 6 -13 12 -24 14 -12 3 -41 13 -65 24 -57
25 -82 35 -91 36 -3 1 -10 4 -14 9 -4 4 -16 7 -26 7 -10 0 -18 5 -18 10 0 6
-6 10 -14 10 -7 0 -46 15 -87 34 -158 72 -190 86 -199 86 -6 0 -10 5 -10 11 0
5 -4 8 -9 4 -5 -3 -17 2 -25 11 -9 8 -16 12 -16 9 0 -4 -17 4 -37 17 -21 12
-39 22 -41 20 -4 -4 -97 41 -103 51 -3 5 -9 9 -12 9 -19 0 -47 12 -47 19 0 5
-5 9 -12 9 -12 0 -139 60 -148 71 -3 3 -20 11 -37 18 -18 8 -33 17 -33 22 0 5
-4 8 -8 7 -8 -3 -103 42 -112 53 -3 3 -20 12 -37 20 -18 8 -33 17 -33 20 0 4
-9 9 -20 12 -28 7 -33 10 -45 19 -22 19 -125 76 -125 70 0 -4 -4 -2 -8 4 -4 6
-25 21 -47 33 -80 43 -130 74 -133 82 -2 5 -8 9 -14 9 -5 0 -29 14 -54 30 -24
17 -44 27 -44 23 0 -4 -4 -3 -8 3 -4 5 -50 37 -102 70 -52 32 -96 62 -98 67
-2 4 -10 7 -18 7 -8 0 -14 5 -14 10 0 6 -7 10 -15 10 -8 0 -15 5 -15 11 0 5
-4 8 -9 5 -5 -3 -11 1 -15 9 -3 8 -12 15 -21 15 -8 0 -15 5 -15 10 0 6 -6 10
-13 10 -7 0 -23 9 -35 20 -12 11 -24 20 -26 20 -3 0 -29 18 -58 40 -29 22 -58
40 -65 40 -6 0 -13 3 -15 8 -1 4 -61 50 -133 102 -71 52 -134 98 -140 102 -5
5 -28 22 -50 38 -53 41 -105 82 -121 98 -8 7 -14 11 -14 7 0 -3 -17 10 -38 29
-20 20 -40 36 -43 36 -3 0 -18 10 -32 23 -13 12 -38 32 -54 44 -16 12 -41 33
-54 45 -14 13 -41 35 -60 49 -18 15 -49 41 -66 58 -18 17 -33 28 -33 25 0 -3
-8 3 -17 13 -10 11 -52 49 -93 84 -41 35 -84 73 -96 84 -11 11 -58 54 -104 95
-91 81 -303 285 -381 365 -140 145 -231 240 -289 304 -36 40 -85 94 -110 121
-25 27 -61 68 -80 91 -19 23 -43 51 -53 63 -10 11 -37 43 -60 70 -23 27 -56
66 -73 85 -17 20 -77 95 -132 166 -56 72 -111 139 -122 150 -11 12 -20 26 -20
32 0 6 -4 13 -8 15 -4 2 -44 53 -89 113 -302 409 -619 912 -858 1360 -129 242
-325 646 -325 671 0 4 11 -5 25 -20 13 -14 27 -26 30 -26z"/>
<path d="M13236 23669 c3 -5 12 -9 21 -9 19 0 9 13 -12 16 -8 1 -13 -2 -9 -7z"/>
<path d="M13287 23670 c7 -7 23 -14 35 -16 13 -1 23 -3 23 -4 0 -1 11 -3 25
-4 14 0 31 -5 39 -10 11 -7 12 -6 6 5 -8 12 -6 12 8 0 9 -7 24 -11 32 -7 8 3
15 2 15 -2 0 -5 10 -9 23 -9 12 -1 36 -4 52 -7 17 -3 39 -7 50 -9 11 -1 26 -6
33 -10 6 -5 16 -6 21 -2 5 3 12 1 16 -4 3 -5 14 -8 25 -6 11 2 20 1 20 -3 0
-4 14 -9 32 -10 17 -2 36 -6 42 -10 6 -4 25 -9 41 -11 17 -2 36 -8 43 -13 6
-6 12 -8 12 -5 0 3 15 1 33 -5 17 -5 39 -11 47 -12 9 -1 20 -5 26 -8 6 -4 21
-9 35 -12 37 -7 303 -97 313 -106 5 -5 14 -6 21 -4 7 3 16 1 20 -5 3 -6 15
-11 26 -11 10 0 19 -5 19 -11 0 -5 4 -8 8 -5 5 3 31 -6 59 -19 28 -13 54 -21
57 -17 3 3 6 -1 6 -8 0 -7 3 -10 6 -7 4 3 16 1 28 -5 11 -7 23 -13 26 -13 3
-1 16 -6 30 -12 22 -10 55 -23 70 -28 3 -1 37 -17 75 -35 39 -19 73 -33 78
-32 4 1 7 -3 7 -9 0 -5 5 -7 10 -4 6 3 10 1 10 -4 0 -6 3 -10 8 -10 13 3 92
-34 92 -43 0 -4 7 -8 15 -8 9 0 44 -15 78 -34 96 -52 240 -128 264 -140 13 -6
23 -15 23 -19 0 -5 5 -5 10 -2 6 3 10 1 10 -4 0 -6 5 -11 11 -11 6 0 30 -13
53 -28 23 -16 56 -35 74 -43 18 -7 32 -17 32 -21 0 -5 7 -8 15 -8 8 0 15 -4
15 -10 0 -5 4 -10 10 -10 14 0 309 -190 338 -217 7 -7 17 -13 22 -13 5 0 15
-6 22 -12 7 -7 42 -33 78 -58 36 -24 71 -50 78 -56 6 -7 21 -16 32 -19 11 -4
18 -11 15 -16 -4 -5 -1 -9 5 -9 12 0 130 -86 142 -105 4 -5 8 -6 8 -2 0 5 7 1
16 -7 9 -9 32 -29 52 -44 21 -15 51 -39 67 -54 17 -16 36 -28 43 -28 6 0 12
-4 12 -8 0 -4 21 -24 48 -44 26 -20 62 -49 79 -65 18 -15 47 -39 63 -53 17
-14 41 -34 53 -45 39 -33 130 -112 157 -135 244 -208 744 -707 1005 -1005 33
-37 71 -80 85 -95 14 -15 41 -47 62 -71 20 -24 46 -55 58 -69 42 -49 99 -116
155 -185 32 -38 61 -71 66 -73 5 -2 9 -8 9 -13 0 -6 9 -20 21 -32 11 -12 43
-52 72 -89 28 -38 55 -68 59 -68 4 0 8 -5 8 -11 0 -6 12 -26 28 -44 15 -18 38
-47 52 -66 14 -18 30 -37 36 -43 6 -6 13 -16 15 -22 2 -6 16 -26 32 -45 15
-19 52 -68 82 -109 30 -41 58 -79 62 -85 5 -5 28 -37 51 -70 131 -182 182
-256 182 -261 0 -3 6 -11 13 -18 14 -16 12 -13 132 -194 52 -79 95 -145 95
-148 0 -3 5 -10 11 -17 13 -14 133 -200 134 -207 0 -3 12 -23 27 -45 44 -68
148 -236 148 -240 0 -2 23 -40 50 -85 28 -45 50 -83 50 -85 0 -1 17 -32 38
-66 34 -56 103 -179 222 -394 105 -190 500 -971 500 -989 0 -3 20 -48 44 -99
55 -115 206 -461 271 -617 26 -63 53 -128 60 -145 31 -72 159 -401 248 -640
107 -287 324 -959 426 -1315 72 -252 224 -854 257 -1015 2 -11 22 -108 44
-215 23 -107 50 -242 61 -300 11 -58 22 -118 25 -135 3 -16 11 -61 18 -100
l12 -70 38 2 c21 2 45 8 52 14 11 9 14 9 14 0 0 -8 6 -9 18 -3 9 5 27 8 40 7
12 -1 22 1 22 4 0 3 20 6 45 7 24 0 47 3 51 7 8 8 -64 424 -111 642 -3 11 -9
43 -14 70 -83 444 -299 1256 -494 1860 -177 546 -469 1319 -632 1673 -14 28
-36 80 -51 115 -14 34 -36 85 -49 112 -13 28 -41 88 -62 135 -196 424 -417
858 -636 1250 -18 33 -218 378 -237 410 -97 161 -323 520 -423 670 -108 162
-320 468 -350 505 -4 6 -25 35 -47 65 -22 30 -43 60 -47 65 -4 6 -28 37 -52
70 -25 33 -47 62 -51 65 -3 3 -17 21 -30 40 -13 19 -44 60 -68 90 -49 62 -42
54 -142 180 -41 52 -77 97 -80 100 -3 3 -27 32 -55 65 -27 33 -52 62 -55 65
-3 3 -22 26 -43 52 -21 26 -43 53 -50 60 -7 7 -41 47 -77 88 -35 41 -69 80
-74 86 -6 7 -33 37 -61 68 -217 244 -721 748 -915 916 -70 60 -124 108 -149
130 -15 14 -38 34 -52 45 -40 33 -143 119 -155 130 -6 6 -28 24 -50 40 -21 17
-56 45 -78 63 -52 42 -63 51 -111 86 -22 17 -42 33 -45 36 -3 3 -30 23 -60 45
-30 22 -59 43 -65 47 -59 47 -148 108 -155 108 -6 0 -10 4 -10 9 0 5 -9 13
-20 16 -11 3 -27 13 -35 21 -36 36 -441 294 -449 286 -3 -3 -6 -1 -6 5 0 5
-18 18 -40 28 -22 10 -40 22 -40 27 0 4 -4 8 -9 8 -5 0 -48 22 -94 49 -47 27
-88 47 -91 43 -3 -3 -6 -1 -6 5 0 5 -20 18 -45 29 -25 10 -45 22 -45 26 0 4
-9 8 -20 8 -11 0 -20 5 -20 11 0 5 -4 8 -9 5 -5 -4 -11 -3 -13 1 -1 5 -19 16
-38 25 -195 95 -260 125 -260 122 0 -2 -16 5 -35 16 -20 11 -42 20 -50 20 -8
0 -15 5 -15 10 0 6 -3 9 -7 8 -5 -1 -21 4 -38 11 -16 6 -55 22 -85 33 -30 12
-59 26 -65 30 -5 4 -15 8 -22 8 -8 0 -30 7 -51 16 -20 10 -44 18 -52 20 -9 2
-34 11 -55 20 -22 10 -44 18 -50 20 -5 1 -70 21 -143 44 -73 23 -139 43 -147
44 -8 1 -17 5 -21 8 -3 4 -12 4 -20 1 -8 -3 -14 0 -14 7 0 6 -4 8 -10 5 -5 -3
-16 -3 -22 2 -7 4 -22 9 -33 10 -11 2 -27 6 -35 10 -8 3 -22 7 -30 8 -8 1 -31
6 -50 10 -19 4 -44 9 -55 10 -11 2 -22 4 -25 6 -3 1 -9 3 -15 4 -5 1 -26 5
-45 10 -19 5 -43 10 -52 11 -10 1 -19 2 -20 4 -6 4 -45 10 -85 12 -24 2 -43 5
-43 8 0 3 -12 7 -27 8 -16 1 -44 5 -63 7 -56 9 -196 22 -323 30 -32 3 -63 7
-70 11 -9 5 -9 4 0 -6z"/>
<path d="M11300 23663 c0 -4 -24 -9 -53 -10 -112 -4 -183 -9 -192 -14 -6 -3
-17 -5 -25 -4 -8 0 -18 -4 -22 -10 -5 -6 -8 -5 -8 3 0 8 -5 10 -12 5 -7 -4
-24 -9 -38 -10 -14 -2 -38 -5 -55 -7 -16 -2 -36 -4 -42 -5 -7 -1 -13 -5 -13
-10 0 -11 100 -8 118 3 6 4 12 3 12 -2 0 -7 65 -9 95 -2 6 1 12 2 15 0 3 -1
73 -3 155 -6 140 -4 270 -11 270 -14 0 -1 18 -4 40 -6 52 -4 122 -13 160 -19
17 -2 48 -7 70 -9 22 -3 40 -5 40 -6 0 -1 14 -4 30 -6 17 -1 37 -5 45 -7 8 -2
38 -7 65 -12 28 -4 54 -10 59 -13 5 -3 29 -7 54 -9 25 -2 53 -8 64 -14 10 -5
23 -7 28 -4 6 3 10 1 10 -4 0 -6 3 -10 8 -9 15 4 97 -13 109 -24 7 -6 13 -8
13 -5 0 6 43 -5 157 -39 29 -9 60 -17 70 -19 10 -2 19 -4 21 -5 1 -2 5 -3 10
-5 4 -1 14 -4 22 -8 50 -19 110 -35 110 -29 0 4 4 2 8 -3 4 -6 41 -22 82 -35
41 -13 78 -28 81 -33 3 -5 9 -8 13 -7 13 4 96 -24 96 -32 0 -4 10 -8 23 -8 13
0 27 -4 33 -8 5 -5 36 -19 69 -32 33 -13 65 -27 71 -32 6 -4 14 -5 17 -1 4 3
7 1 7 -5 0 -7 3 -11 8 -10 4 1 30 -8 57 -21 28 -12 68 -30 90 -38 22 -9 52
-25 67 -35 14 -10 31 -18 37 -18 13 0 53 -22 62 -33 3 -5 10 -9 15 -9 16 1
104 -43 104 -51 0 -5 4 -6 9 -2 5 3 16 -1 24 -9 8 -8 17 -13 19 -10 3 2 11 -2
18 -11 7 -8 18 -15 24 -15 7 0 33 -13 59 -30 26 -16 47 -27 47 -23 0 3 8 -1
18 -9 9 -8 49 -32 87 -53 39 -21 71 -42 73 -47 2 -4 10 -8 18 -8 8 0 20 -5 27
-11 21 -18 219 -139 228 -139 5 0 9 -4 9 -10 0 -5 6 -10 14 -10 7 0 19 -7 26
-15 7 -9 28 -23 46 -31 19 -9 34 -20 34 -25 0 -5 5 -9 10 -9 12 0 73 -41 78
-52 2 -5 10 -8 18 -8 8 0 14 -4 14 -10 0 -5 7 -10 15 -10 7 0 18 -6 22 -13 4
-8 15 -17 23 -21 39 -18 59 -33 53 -39 -3 -4 0 -7 8 -7 9 0 24 -8 35 -17 10
-10 36 -29 56 -43 21 -14 38 -28 38 -32 0 -5 5 -8 11 -8 8 0 83 -53 99 -71 3
-3 26 -20 53 -39 26 -18 47 -37 47 -42 0 -4 6 -8 13 -8 6 0 30 -16 52 -35 22
-19 45 -38 50 -43 26 -18 172 -137 186 -151 9 -9 36 -32 59 -50 23 -19 48 -40
54 -45 6 -6 45 -40 86 -76 90 -78 76 -66 190 -170 257 -236 467 -445 775 -774
22 -24 67 -73 100 -110 33 -37 71 -80 85 -96 66 -73 134 -152 153 -177 12 -15
29 -35 37 -44 8 -8 29 -32 45 -52 17 -20 43 -51 58 -69 16 -18 38 -46 50 -61
12 -15 32 -40 45 -55 12 -15 82 -102 154 -194 126 -161 133 -167 152 -153 77
55 179 120 187 117 5 -1 9 2 9 6 0 5 18 17 40 27 44 20 49 32 22 61 -10 10
-38 46 -64 79 -25 33 -54 70 -64 81 -11 12 -32 39 -49 60 -41 51 -177 216
-190 230 -5 6 -26 30 -45 54 -19 24 -42 51 -50 59 -9 9 -45 50 -80 91 -36 41
-76 87 -90 102 -14 14 -59 63 -100 109 -236 260 -604 628 -845 844 -37 33 -80
71 -95 85 -42 37 -117 102 -205 175 -27 22 -61 52 -77 68 -16 15 -32 27 -34
27 -3 0 -19 13 -37 30 -18 16 -38 30 -45 30 -7 0 -10 5 -7 10 3 6 0 10 -9 10
-8 0 -16 3 -18 8 -2 4 -23 23 -48 42 -25 19 -47 37 -50 40 -3 3 -21 17 -40 30
-19 13 -38 28 -41 33 -3 5 -18 16 -32 25 -14 9 -81 57 -149 107 -68 49 -126
89 -130 87 -5 -1 -8 2 -8 7 0 4 -71 55 -157 112 -87 57 -161 108 -164 112 -3
5 -8 8 -10 6 -2 -1 -24 11 -49 27 -64 41 -81 51 -117 70 -18 10 -33 21 -33 26
0 4 -9 8 -20 8 -11 0 -20 5 -20 10 0 6 -7 10 -15 10 -8 0 -15 3 -15 8 0 4 -10
12 -23 18 -12 6 -42 22 -67 34 -25 12 -53 29 -62 38 -10 8 -18 12 -18 8 0 -4
-12 1 -27 12 -16 11 -62 36 -103 57 -41 21 -78 42 -81 47 -3 5 -8 8 -10 7 -6
-4 -103 45 -111 56 -4 5 -8 7 -8 2 0 -4 -28 7 -62 25 -35 18 -66 33 -70 34 -5
1 -11 3 -15 4 -5 1 -11 2 -15 1 -5 0 -8 4 -8 10 0 5 -4 7 -10 4 -5 -3 -10 -3
-10 2 0 4 -11 13 -25 20 -14 6 -23 8 -20 3 2 -4 -20 5 -49 20 -30 16 -57 26
-60 23 -3 -4 -6 -1 -6 5 0 7 -3 11 -7 10 -5 -1 -18 3 -30 10 -13 7 -23 10 -23
7 0 -3 -11 2 -25 11 -14 9 -25 13 -25 9 0 -4 -6 -3 -12 2 -7 6 -31 16 -53 23
-22 7 -45 16 -51 21 -6 5 -14 6 -17 2 -4 -3 -7 -1 -7 5 0 6 -7 9 -15 6 -8 -4
-15 -1 -15 5 0 6 -3 10 -7 9 -8 -2 -70 16 -108 31 -11 5 -33 14 -48 20 -15 6
-37 11 -47 11 -11 0 -20 5 -20 12 0 6 -3 9 -6 6 -3 -4 -20 -2 -37 4 -18 5 -36
10 -42 11 -5 2 -14 5 -20 8 -5 4 -28 10 -50 14 -22 4 -46 12 -53 17 -7 6 -15
8 -19 5 -3 -4 -12 -2 -19 3 -6 6 -16 10 -20 9 -5 -1 -16 1 -24 4 -8 4 -28 8
-45 11 -16 2 -32 5 -35 7 -3 1 -9 3 -15 4 -5 2 -12 4 -15 5 -15 5 -143 32
-166 34 -11 1 -24 5 -30 8 -5 3 -29 9 -54 12 -51 7 -85 14 -85 16 0 1 -13 3
-30 4 -16 2 -50 7 -75 11 -25 4 -54 8 -65 9 -11 1 -26 5 -32 9 -8 5 -13 4 -13
-3 0 -6 -4 -8 -10 -5 -16 10 -168 26 -272 29 -32 0 -58 3 -58 6 0 8 -294 6
-307 -3 -7 -5 -13 -4 -13 1 0 4 -16 8 -35 8 -19 -1 -35 -4 -35 -9 0 -4 -9 -3
-20 3 -11 6 -20 7 -20 3z"/>
<path d="M10789 23599 c-7 -4 -21 -6 -32 -3 -11 2 -17 0 -13 -3 11 -11 56 -11
56 0 0 5 7 4 15 -3 12 -10 15 -10 15 2 0 16 -22 19 -41 7z"/>
<path d="M10710 23590 c0 -5 5 -10 11 -10 5 0 7 5 4 10 -3 6 -8 10 -11 10 -2
0 -4 -4 -4 -10z"/>
<path d="M10130 23286 c0 -11 41 -200 44 -203 5 -5 45 -12 83 -15 18 -1 33 -5
33 -8 0 -3 12 -6 28 -6 15 -1 41 -4 57 -8 37 -8 106 -19 123 -19 6 0 12 -4 12
-9 0 -6 6 -8 13 -5 6 2 26 0 42 -5 17 -5 41 -11 55 -14 14 -2 41 -8 60 -13 19
-5 55 -14 80 -21 25 -6 59 -16 75 -22 17 -5 39 -11 50 -13 11 -2 21 -4 23 -5
1 -2 5 -3 10 -4 4 -2 27 -9 52 -16 25 -7 48 -14 53 -16 4 -1 8 -2 10 -4 1 -1
11 -3 22 -5 10 -2 28 -8 40 -13 25 -12 97 -34 107 -33 5 0 24 -8 43 -19 20
-11 41 -20 48 -20 12 0 136 -47 212 -80 42 -18 76 -32 85 -34 3 -1 16 -8 30
-16 14 -7 26 -13 27 -12 2 1 29 -10 60 -25 32 -15 60 -27 63 -28 3 0 72 -33
154 -73 82 -39 152 -72 157 -72 5 0 9 -5 9 -11 0 -5 4 -8 9 -5 5 4 11 3 13 -2
1 -4 35 -24 73 -44 138 -71 160 -83 163 -90 2 -5 10 -8 17 -8 7 0 15 -3 17 -7
2 -5 19 -16 38 -26 49 -25 94 -51 100 -58 3 -3 25 -16 50 -30 25 -13 47 -26
50 -29 11 -12 142 -90 151 -90 5 0 9 -4 9 -10 0 -5 5 -10 10 -10 6 0 20 -9 32
-20 12 -11 28 -20 35 -20 7 0 13 -4 13 -8 0 -5 12 -15 28 -23 15 -8 32 -18 39
-24 7 -5 18 -15 26 -21 7 -6 23 -15 35 -18 12 -4 22 -11 22 -15 0 -4 21 -22
48 -39 78 -51 137 -94 140 -103 2 -5 8 -9 14 -9 6 0 23 -10 38 -22 15 -13 43
-34 61 -48 18 -14 37 -29 43 -35 6 -5 23 -16 39 -24 15 -8 27 -21 27 -29 0 -9
3 -13 6 -9 6 6 17 -2 59 -40 13 -13 28 -23 32 -23 4 0 26 -16 48 -35 22 -19
45 -38 50 -43 6 -4 37 -29 70 -57 32 -27 63 -49 67 -48 4 2 8 -3 8 -10 0 -6
15 -22 33 -34 18 -13 49 -37 69 -55 44 -40 151 -135 181 -161 70 -59 227 -209
424 -402 123 -121 226 -219 227 -218 2 3 50 -49 138 -150 24 -26 158 -174 183
-201 23 -25 210 -238 275 -315 25 -29 58 -67 74 -85 16 -17 40 -47 55 -66 14
-19 46 -60 71 -91 25 -30 60 -74 78 -97 19 -22 41 -50 50 -61 10 -11 26 -32
37 -47 11 -15 38 -50 61 -78 80 -99 421 -562 459 -624 6 -9 18 -25 28 -36 9
-11 17 -24 17 -29 0 -6 6 -15 14 -21 7 -6 88 -126 181 -266 92 -140 176 -267
186 -282 10 -15 19 -30 19 -33 0 -3 23 -39 50 -81 28 -41 50 -77 50 -80 0 -2
17 -30 37 -61 21 -32 43 -67 49 -78 6 -11 39 -67 74 -125 35 -58 71 -118 80
-135 9 -16 42 -73 73 -126 82 -143 159 -281 287 -519 64 -121 363 -718 414
-830 22 -47 58 -125 81 -175 67 -144 85 -183 137 -305 27 -63 58 -133 68 -155
45 -100 284 -693 300 -745 5 -14 31 -86 60 -160 28 -74 90 -245 136 -380 47
-135 89 -256 94 -270 64 -179 230 -735 341 -1145 52 -194 169 -676 204 -845
20 -99 78 -381 82 -400 2 -14 15 -84 28 -155 13 -72 26 -144 29 -160 3 -17 8
-40 10 -51 5 -23 12 -69 22 -131 3 -21 7 -49 9 -63 3 -14 7 -43 10 -65 3 -22
10 -65 15 -95 5 -30 12 -75 15 -100 3 -25 8 -56 10 -70 2 -14 7 -49 10 -79 4
-30 8 -62 10 -71 6 -30 34 -272 50 -430 3 -30 8 -71 10 -90 3 -19 7 -64 10
-100 3 -36 7 -85 10 -110 3 -25 7 -74 10 -110 8 -142 17 -267 20 -300 13 -126
20 -443 20 -880 0 -445 -4 -595 -20 -835 -3 -33 -7 -96 -10 -140 -3 -44 -7
-100 -10 -125 -2 -25 -7 -79 -10 -120 -4 -41 -8 -86 -10 -100 -2 -14 -6 -54
-10 -90 -3 -36 -8 -72 -10 -80 -2 -8 -7 -44 -10 -80 -7 -66 -8 -82 -19 -160
-47 -337 -88 -537 -192 -955 -175 -697 -396 -1322 -641 -1809 -73 -145 -99
-194 -113 -216 -19 -30 -145 -245 -149 -255 -2 -5 -8 -14 -13 -20 -5 -5 -31
-44 -59 -85 -74 -112 -120 -177 -172 -245 -192 -251 -447 -523 -658 -700 -65
-55 -149 -123 -179 -145 -18 -14 -39 -31 -46 -38 -7 -6 -17 -12 -22 -12 -6 0
-12 -4 -14 -8 -1 -5 -41 -35 -88 -67 -47 -33 -88 -64 -92 -70 -5 -6 -8 -6 -8
0 0 6 -3 6 -8 -1 -4 -5 -43 -32 -87 -59 -44 -27 -82 -52 -85 -55 -3 -3 -16
-11 -30 -18 -14 -6 -52 -27 -85 -47 -33 -19 -71 -39 -84 -45 -15 -7 -21 -16
-17 -26 3 -9 6 -19 6 -24 0 -9 26 -7 36 3 4 4 16 7 26 7 10 0 18 5 18 12 0 6
3 9 6 6 6 -7 186 66 221 90 13 8 23 11 23 7 0 -4 6 -2 14 4 7 6 56 33 109 60
53 27 109 58 125 70 16 11 32 18 36 14 3 -3 6 -1 6 5 0 7 7 12 15 12 8 0 15 5
15 11 0 5 4 8 9 5 5 -3 14 1 21 9 7 8 18 15 25 15 8 0 15 3 17 8 2 4 50 38
107 76 57 37 109 72 115 77 6 5 45 35 86 66 41 32 80 62 86 68 6 5 28 24 49
40 52 41 97 80 162 142 30 28 58 53 61 55 9 4 222 227 277 288 64 72 146 172
205 249 30 40 60 78 65 84 6 7 35 48 65 92 30 44 61 86 67 93 7 7 13 17 13 22
0 5 6 15 13 22 14 14 101 149 138 213 318 554 497 961 687 1570 28 88 60 194
71 235 48 179 82 313 106 420 33 150 36 161 40 185 2 11 8 40 14 65 5 25 12
61 16 80 3 19 12 69 20 110 8 41 17 89 19 105 3 17 12 71 20 120 8 50 18 110
21 135 3 25 8 56 11 70 2 14 7 45 9 70 3 25 7 54 9 65 2 11 7 49 11 85 3 36 8
76 10 90 4 28 15 133 20 189 2 20 6 63 10 96 8 76 13 145 20 265 3 52 8 122
10 155 24 334 24 1338 0 1555 -2 19 -6 91 -10 160 -3 69 -8 141 -10 160 -2 19
-7 74 -10 122 -3 49 -8 96 -9 105 -2 10 -7 57 -10 105 -4 48 -9 98 -11 110 -2
13 -6 55 -10 93 -3 39 -8 77 -10 85 -2 8 -6 47 -10 85 -6 68 -9 95 -20 171 -3
19 -7 56 -10 82 -3 26 -7 58 -10 72 -2 14 -7 45 -10 70 -3 25 -10 70 -15 100
-13 76 -18 108 -25 160 -3 25 -13 86 -22 135 -8 50 -17 99 -18 110 -2 11 -6
34 -9 50 -3 17 -11 59 -16 94 -6 35 -17 94 -25 132 -8 38 -17 81 -20 96 -2 16
-9 53 -15 83 -6 30 -14 66 -16 80 -3 14 -10 45 -15 70 -6 25 -13 56 -15 70 -2
14 -20 96 -40 182 -19 87 -37 165 -38 175 -9 46 -122 491 -153 603 -19 69 -36
132 -38 140 -34 155 -253 855 -395 1265 -99 286 -333 895 -433 1125 -5 14 -11
27 -11 30 -1 3 -4 10 -7 15 -4 6 -32 71 -64 145 -156 369 -481 1048 -668 1395
-24 44 -60 112 -82 150 -21 39 -48 88 -60 110 -50 93 -84 153 -114 203 -17 29
-31 55 -31 58 0 2 -11 21 -24 42 -13 20 -70 116 -127 212 -57 96 -109 184
-116 195 -7 11 -20 35 -29 53 -10 17 -21 32 -26 32 -4 0 -8 4 -8 10 0 14 -115
196 -314 495 -166 249 -539 773 -565 795 -4 3 -31 39 -61 80 -30 41 -62 84
-72 95 -17 21 -83 103 -96 120 -19 26 -180 223 -204 250 -14 16 -64 75 -110
130 -45 55 -90 107 -98 116 -8 8 -40 44 -70 79 -30 35 -80 90 -110 123 -30 34
-68 74 -83 91 -189 208 -599 617 -793 791 -43 39 -92 83 -109 99 -16 15 -47
42 -68 60 -22 17 -56 47 -77 66 -22 19 -48 42 -58 50 -11 8 -41 34 -68 56 -27
23 -80 67 -119 98 -38 31 -76 62 -84 68 -17 15 -102 81 -151 118 -56 42 -144
109 -165 126 -11 8 -32 23 -47 32 -16 9 -28 20 -28 24 0 4 -7 8 -15 8 -8 0
-15 5 -15 10 0 6 -5 10 -10 10 -10 0 -22 8 -55 38 -7 6 -16 12 -20 12 -4 0
-13 6 -20 13 -33 29 -45 37 -55 37 -5 0 -10 5 -10 12 0 6 -3 9 -6 5 -3 -3 -18
5 -32 19 -15 13 -31 24 -35 24 -5 0 -26 14 -47 30 -21 17 -41 30 -44 30 -3 0
-28 15 -54 33 -26 18 -126 79 -222 136 -96 57 -186 111 -200 120 -14 8 -27 16
-30 17 -41 13 -50 18 -50 25 0 4 -16 13 -35 20 -19 7 -35 17 -35 21 0 4 -9 8
-19 8 -11 0 -21 4 -23 8 -1 4 -48 30 -103 57 -55 27 -103 53 -106 58 -4 5 -12
6 -18 3 -6 -4 -11 -2 -11 5 0 7 -3 9 -7 6 -3 -4 -15 1 -26 10 -10 10 -20 16
-21 14 0 -2 -37 13 -81 34 -85 39 -127 58 -135 59 -3 1 -21 8 -40 17 -19 9
-66 29 -105 43 -38 15 -79 31 -90 36 -32 15 -139 55 -150 56 -9 1 -42 13 -85
31 -8 3 -21 5 -27 4 -7 -1 -13 3 -13 8 0 5 -9 8 -20 6 -11 -2 -20 1 -20 6 0 6
-4 7 -10 4 -5 -3 -10 -1 -10 6 0 7 -3 10 -6 6 -3 -3 -23 1 -45 8 -21 8 -39 12
-39 8 0 -3 -7 0 -15 7 -8 7 -15 10 -15 6 0 -4 -10 0 -23 9 -13 8 -26 13 -29
10 -3 -3 -24 1 -46 9 -23 9 -42 13 -42 10 0 -2 -8 0 -18 5 -11 6 -30 12 -43
15 -13 3 -35 8 -49 11 -14 3 -34 8 -45 10 -11 3 -31 8 -45 11 -14 3 -33 7 -42
8 -10 1 -20 5 -24 8 -3 4 -12 4 -20 1 -8 -3 -14 -1 -14 4 0 5 -10 9 -22 8 -13
-1 -27 0 -33 4 -5 3 -23 7 -40 8 -16 0 -30 2 -30 3 0 2 -9 4 -20 6 -11 1 -31
5 -45 8 -13 3 -42 8 -65 12 -22 3 -53 8 -70 11 -43 6 -82 11 -145 17 -118 12
-141 15 -152 22 -7 5 -8 3 -3 -6 6 -9 4 -11 -4 -5 -13 7 -161 18 -161 11z"/>
<path d="M15770 23176 c29 -17 40 -20 40 -8 0 5 -6 9 -12 9 -7 0 -22 4 -33 7
-13 5 -12 2 5 -8z"/>
<path d="M15820 23160 c0 -5 5 -10 10 -10 6 0 10 5 10 10 0 6 -4 10 -10 10 -5
0 -10 -4 -10 -10z"/>
<path d="M15850 23149 c0 -6 5 -7 10 -4 6 3 10 1 10 -4 0 -6 7 -11 15 -11 8 0
23 -4 33 -9 27 -15 116 -46 125 -43 4 1 7 -2 7 -7 0 -10 39 -27 53 -23 4 1 7
-2 7 -8 0 -5 4 -10 9 -10 5 0 22 -5 38 -12 15 -6 31 -11 36 -10 4 1 7 -2 7 -8
0 -5 4 -10 9 -10 5 0 25 -7 45 -15 20 -8 39 -15 42 -14 4 0 10 -3 13 -8 3 -5
47 -29 96 -53 50 -24 93 -48 97 -54 4 -6 8 -7 8 -2 0 5 6 4 13 -1 12 -10 139
-80 214 -119 24 -11 41 -23 38 -26 -3 -2 20 -15 50 -29 30 -13 55 -27 55 -30
0 -4 14 -12 30 -19 17 -7 30 -16 30 -21 0 -5 6 -9 13 -9 7 0 23 -9 35 -20 12
-12 22 -18 22 -14 0 3 15 -5 34 -20 19 -14 39 -26 45 -26 6 0 11 -4 11 -10 0
-5 7 -10 15 -10 8 0 15 -4 15 -10 0 -5 7 -10 15 -10 8 0 15 -4 15 -10 0 -5 7
-10 15 -10 8 0 15 -4 15 -8 0 -5 10 -14 23 -21 45 -23 171 -111 175 -123 2 -4
10 -8 18 -8 8 0 14 -4 14 -8 0 -5 8 -13 19 -18 10 -5 32 -19 47 -31 103 -80
134 -103 139 -103 3 0 17 -10 30 -22 13 -13 37 -33 52 -45 63 -48 98 -78 101
-85 2 -5 10 -8 17 -8 7 0 15 -3 17 -8 2 -4 59 -54 128 -112 69 -57 137 -117
153 -132 15 -16 30 -28 33 -28 2 0 15 -10 28 -22 13 -13 70 -66 127 -118 133
-121 537 -525 654 -654 50 -54 101 -111 115 -126 14 -15 50 -55 80 -90 30 -35
62 -71 70 -80 15 -16 108 -126 123 -145 4 -5 19 -23 34 -40 22 -24 113 -138
317 -395 119 -151 420 -571 539 -754 7 -10 17 -24 22 -30 6 -6 26 -36 45 -66
19 -30 38 -56 42 -58 5 -2 8 -7 8 -12 0 -4 36 -64 80 -132 44 -67 83 -130 87
-138 4 -8 24 -41 45 -72 21 -31 38 -60 38 -63 0 -4 10 -21 22 -38 12 -17 30
-45 39 -61 9 -17 52 -92 96 -166 43 -74 90 -155 104 -180 13 -25 27 -46 32
-48 4 -2 7 -8 7 -12 0 -5 33 -69 73 -142 124 -223 335 -636 419 -818 20 -41
51 -109 71 -150 56 -118 100 -216 151 -335 27 -60 57 -128 67 -150 10 -22 35
-80 55 -130 20 -49 42 -103 50 -120 7 -16 27 -66 44 -110 17 -44 35 -89 40
-100 5 -11 21 -51 36 -90 14 -38 51 -135 81 -215 148 -391 347 -998 445 -1355
6 -22 16 -60 24 -85 23 -79 113 -429 130 -502 2 -10 6 -26 8 -35 44 -178 120
-521 140 -627 2 -12 13 -70 25 -131 11 -60 23 -123 26 -140 15 -78 46 -255 51
-295 3 -25 7 -47 9 -50 2 -3 6 -30 9 -60 4 -30 11 -77 16 -105 5 -27 12 -72
15 -100 3 -27 7 -61 10 -75 2 -14 7 -50 11 -80 4 -30 8 -64 9 -75 6 -39 17
-131 20 -165 4 -39 13 -126 20 -180 2 -19 7 -69 10 -110 4 -41 8 -91 10 -110
3 -19 7 -71 10 -115 3 -44 7 -111 10 -150 3 -38 7 -115 10 -170 3 -55 8 -147
11 -205 7 -131 7 -812 0 -940 -3 -52 -8 -144 -11 -205 -3 -60 -8 -137 -10
-170 -14 -169 -25 -287 -30 -335 -4 -39 -13 -114 -20 -175 -6 -51 -35 -262
-40 -295 -2 -14 -7 -43 -10 -65 -6 -39 -51 -300 -59 -340 -24 -120 -50 -237
-97 -435 -116 -488 -331 -1068 -551 -1490 -38 -74 -66 -130 -61 -125 50 52
318 543 407 745 115 262 248 632 321 895 19 72 42 153 50 180 8 28 26 98 40
158 27 119 26 110 55 257 12 58 23 114 26 125 2 11 7 35 10 54 3 18 8 43 10
55 2 11 7 37 10 56 3 19 9 60 14 90 5 30 12 73 15 95 3 22 10 67 15 100 5 33
12 85 15 115 3 30 8 66 10 80 6 35 13 103 21 185 3 39 8 84 9 100 2 17 6 68
10 115 3 47 8 103 10 125 2 22 7 103 11 180 3 77 8 169 9 205 5 96 5 689 0
805 -12 297 -22 467 -30 545 -3 25 -7 81 -10 125 -3 44 -8 96 -10 115 -2 19
-7 68 -10 108 -4 41 -8 81 -10 91 -2 9 -6 48 -10 86 -3 39 -8 81 -10 95 -2 14
-6 48 -10 75 -29 233 -99 684 -130 840 -13 67 -18 91 -30 160 -3 17 -15 75
-26 130 -12 55 -23 109 -25 120 -16 85 -84 375 -130 560 -25 99 -47 187 -49
195 -29 133 -198 697 -310 1035 -100 302 -297 838 -360 980 -7 16 -27 64 -43
105 -196 485 -487 1097 -766 1613 -60 112 -154 279 -166 297 -6 8 -13 22 -17
30 -7 15 -104 181 -123 210 -6 8 -13 22 -17 30 -3 8 -19 34 -35 57 -15 23 -28
46 -28 51 0 5 -9 17 -20 27 -11 10 -18 20 -16 22 2 3 -7 21 -20 41 -13 20 -29
44 -34 52 -6 8 -33 51 -60 95 -27 44 -55 87 -61 95 -11 17 -67 102 -84 129 -6
9 -39 59 -75 111 -36 52 -69 102 -75 111 -28 46 -100 144 -107 147 -4 2 -8 10
-8 18 0 8 -4 14 -10 14 -5 0 -10 4 -10 10 0 5 -6 18 -14 27 -8 10 -74 99 -147
198 -73 99 -135 182 -138 185 -4 3 -18 21 -33 42 -15 20 -34 42 -41 50 -7 7
-18 20 -23 29 -5 9 -23 34 -41 55 -18 21 -69 84 -113 139 -73 89 -157 189
-185 219 -5 6 -37 43 -70 81 -240 281 -627 677 -910 930 -43 39 -88 80 -101
93 -13 12 -28 22 -34 22 -5 0 -10 4 -10 8 0 5 -51 51 -112 102 -62 51 -117 98
-123 104 -5 6 -35 30 -65 52 -30 23 -66 52 -80 64 -14 12 -36 30 -50 39 -31
20 -57 40 -82 64 -10 9 -20 17 -23 17 -5 0 -111 78 -158 116 -9 8 -21 14 -27
14 -5 0 -14 8 -19 18 -6 9 -11 13 -11 7 0 -6 -3 -6 -8 1 -10 15 -279 194 -292
194 -5 0 -10 3 -10 8 0 4 -20 18 -45 32 -25 14 -45 28 -45 32 0 5 -7 8 -15 8
-8 0 -24 8 -35 18 -11 9 -23 15 -27 14 -3 -2 -9 0 -12 5 -6 9 -103 66 -156 93
-16 8 -32 17 -35 20 -3 3 -18 12 -35 20 -16 8 -38 21 -47 29 -10 8 -18 11 -18
6 0 -4 -6 -3 -13 3 -20 17 -210 112 -224 112 -7 0 -13 5 -13 11 0 5 -4 7 -10
4 -5 -3 -10 -1 -10 5 0 6 -4 8 -10 5 -5 -3 -10 -1 -10 4 0 6 -8 11 -18 11 -10
0 -27 7 -38 15 -12 8 -24 11 -28 8 -3 -3 -6 -1 -6 5 0 7 -9 12 -20 12 -11 0
-20 4 -20 10 0 5 -7 7 -15 4 -8 -4 -15 -1 -15 5 0 6 -3 10 -7 9 -5 -1 -26 6
-48 16 -22 10 -60 26 -85 35 -25 10 -54 22 -65 26 -11 5 -22 9 -25 10 -8 3
-43 16 -60 23 -8 3 -19 6 -25 7 -5 1 -21 7 -35 13 -43 18 -65 25 -74 23 -4 -1
-14 3 -22 10 -7 6 -18 8 -24 4 -5 -3 -10 -1 -10 5 0 7 -7 10 -15 6 -8 -3 -15
-1 -15 4 0 5 -7 7 -15 4 -8 -4 -15 -2 -15 3 0 5 -9 9 -20 10 -11 1 -20 -3 -20
-8z"/>
<path d="M10210 22415 c0 -6 -15 -10 -32 -10 -51 2 -154 -33 -190 -63 -10 -9
-18 -11 -18 -7 0 4 -9 -2 -20 -15 -11 -13 -20 -20 -20 -16 0 14 -75 -69 -108
-119 -118 -180 -93 -441 56 -592 50 -50 81 -75 117 -93 17 -8 33 -19 37 -25 4
-5 8 -7 8 -3 0 4 19 0 43 -9 23 -8 60 -16 82 -18 22 -2 42 -4 45 -5 11 -5 102
3 120 10 3 1 8 2 12 1 16 -2 129 49 140 64 4 5 8 6 8 2 0 -8 4 -5 67 51 207
186 207 522 -1 715 -44 40 -169 110 -180 100 -3 -4 -6 -2 -6 3 0 11 -10 12
-90 16 -30 2 -58 8 -62 13 -5 7 -8 6 -8 0z"/>
<path d="M18020 22206 c0 -2 8 -10 18 -17 15 -13 16 -12 3 4 -13 16 -21 21
-21 13z"/>
<path d="M18170 22116 c0 -2 8 -10 18 -17 15 -13 16 -12 3 4 -13 16 -21 21
-21 13z"/>
<path d="M18216 22087 c3 -10 9 -15 12 -12 3 3 0 11 -7 18 -10 9 -11 8 -5 -6z"/>
<path d="M18240 22066 c0 -2 29 -21 65 -42 36 -21 65 -42 65 -46 0 -4 6 -8 13
-8 6 0 28 -14 47 -30 19 -16 39 -30 43 -30 4 0 13 -5 20 -10 49 -42 68 -56
113 -86 28 -19 63 -45 78 -59 15 -14 30 -25 33 -25 3 0 29 -19 58 -42 28 -24
67 -54 85 -68 18 -14 38 -29 44 -35 6 -5 47 -39 91 -75 44 -36 89 -74 101 -85
12 -11 43 -38 69 -60 26 -22 62 -53 79 -70 18 -16 70 -64 116 -105 82 -73 522
-510 515 -510 -3 0 10 -15 28 -33 58 -60 141 -151 202 -222 33 -39 65 -74 71
-80 9 -9 146 -173 169 -203 6 -7 17 -21 26 -30 46 -50 248 -313 449 -582 101
-136 406 -592 525 -786 69 -112 141 -232 151 -249 6 -11 33 -58 61 -105 56
-94 62 -105 153 -270 34 -63 74 -135 88 -160 76 -138 344 -680 433 -875 48
-108 231 -529 233 -540 2 -5 8 -21 13 -35 6 -14 22 -52 35 -85 14 -33 42 -105
63 -160 20 -55 43 -114 51 -131 31 -70 247 -691 258 -739 1 -5 14 -46 28 -90
15 -44 38 -120 53 -170 15 -49 31 -103 36 -120 23 -73 124 -440 134 -485 2 -8
17 -71 34 -140 31 -123 78 -323 87 -368 3 -13 15 -74 29 -135 13 -62 27 -128
30 -147 3 -19 12 -66 20 -105 8 -38 19 -97 25 -130 5 -33 12 -71 15 -85 3 -14
10 -54 16 -90 5 -36 12 -76 14 -90 19 -118 35 -222 40 -260 3 -25 9 -76 15
-115 5 -38 12 -90 15 -115 3 -25 7 -61 10 -80 7 -53 20 -179 30 -285 3 -33 8
-78 10 -100 2 -22 7 -76 10 -120 3 -44 8 -105 10 -135 27 -362 27 -1219 0
-1510 -2 -25 -7 -81 -10 -125 -10 -124 -21 -227 -40 -372 -3 -21 -7 -54 -9
-73 -14 -107 -19 -146 -37 -255 -50 -302 -122 -633 -175 -802 -14 -48 -9 -59
7 -15 15 40 110 359 125 422 2 8 15 62 29 120 14 58 27 116 30 130 3 14 7 36
10 50 10 40 63 321 70 365 19 123 36 245 40 280 3 22 7 51 10 65 2 14 7 59 10
100 3 41 8 82 10 90 2 8 7 58 10 110 4 52 9 113 11 135 4 55 14 209 20 330 6
121 6 714 0 840 -9 171 -18 330 -21 365 -2 19 -6 76 -10 127 -3 50 -8 100 -10
111 -2 11 -6 56 -10 99 -3 43 -8 89 -10 103 -2 14 -6 54 -10 90 -13 126 -23
200 -50 385 -8 52 -67 417 -70 430 -1 6 -5 28 -9 50 -98 520 -225 1049 -356
1480 -12 39 -27 93 -35 120 -21 79 -192 586 -246 735 -76 206 -159 420 -180
467 -10 24 -19 45 -19 47 0 5 -124 301 -155 371 -221 497 -419 894 -657 1314
-54 96 -98 178 -98 182 0 5 -4 9 -10 9 -5 0 -10 6 -10 14 0 7 -7 19 -15 26 -9
7 -13 15 -10 18 3 3 -1 12 -8 21 -8 9 -52 78 -98 154 -46 76 -91 149 -99 162
-94 148 -115 180 -122 183 -4 2 -8 7 -8 12 0 4 -32 55 -70 111 -39 57 -79 115
-88 129 -37 55 -187 265 -192 270 -4 3 -21 28 -40 55 -19 28 -36 52 -40 55 -3
3 -17 21 -30 40 -13 19 -27 37 -30 40 -3 3 -27 34 -55 70 -54 70 -53 69 -117
149 -24 29 -47 61 -53 70 -5 8 -15 20 -21 26 -6 5 -33 37 -60 70 -27 33 -53
65 -59 71 -5 6 -32 37 -60 69 -91 108 -120 140 -140 161 -11 11 -51 56 -90 99
-96 109 -488 501 -610 610 -55 50 -112 102 -128 118 -16 15 -30 27 -33 27 -4
0 -46 37 -89 78 -13 12 -29 22 -35 22 -6 0 -8 5 -5 10 3 6 0 10 -9 10 -8 0
-16 3 -18 8 -1 4 -28 27 -58 52 -30 25 -57 47 -60 50 -10 10 -236 182 -276
210 -119 83 -149 105 -152 112 -2 4 -9 8 -16 8 -7 0 -21 9 -31 20 -10 11 -24
20 -32 20 -7 0 -13 5 -13 10 0 6 -6 10 -14 10 -7 0 -29 13 -47 30 -19 16 -40
30 -46 30 -7 0 -13 5 -13 10 0 6 -9 10 -19 10 -11 0 -21 4 -23 9 -3 10 -138
97 -153 99 -5 1 -17 7 -26 14 -16 13 -39 21 -39 14z"/>
<path d="M11350 21602 c-23 -68 -69 -163 -115 -239 -26 -41 -26 -41 -6 -48 12
-3 21 -11 21 -16 0 -5 6 -9 14 -9 8 0 16 -4 18 -8 2 -4 27 -23 56 -42 28 -18
52 -37 52 -41 0 -4 9 -11 20 -14 11 -3 26 -12 32 -18 7 -7 36 -29 63 -49 28
-21 55 -41 60 -46 6 -4 28 -21 50 -37 22 -17 42 -33 45 -37 5 -7 54 -46 110
-88 18 -14 38 -29 44 -35 14 -13 125 -105 150 -125 10 -8 29 -24 41 -35 13
-11 43 -36 67 -55 23 -19 53 -45 65 -57 13 -12 23 -20 23 -18 0 2 12 -9 28
-23 15 -15 49 -45 76 -67 27 -22 55 -44 61 -50 6 -5 23 -20 37 -33 30 -27 57
-34 76 -19 8 6 12 6 12 -2 0 -7 5 -9 12 -5 6 4 102 8 213 9 111 1 207 5 213 9
7 4 12 2 12 -4 0 -8 6 -8 20 0 11 6 20 7 20 2 0 -7 33 -9 60 -3 8 2 -135 131
-229 207 -13 10 -34 29 -47 42 -13 12 -26 22 -29 22 -3 0 -16 10 -29 23 -13
12 -41 36 -62 54 -22 17 -52 43 -69 57 -16 14 -38 29 -47 32 -10 3 -18 12 -18
20 0 8 -4 14 -8 14 -5 0 -20 9 -33 21 -13 11 -34 29 -46 40 -13 10 -23 16 -23
11 0 -4 -4 -2 -8 4 -5 9 -103 91 -157 131 -5 5 -24 19 -41 33 -17 14 -46 36
-64 50 -18 14 -76 58 -127 98 -51 39 -97 72 -102 72 -5 0 -11 3 -13 8 -5 13
-85 72 -97 72 -6 0 -11 4 -11 9 0 6 -18 20 -40 32 -22 13 -40 26 -40 31 0 4
-5 8 -11 8 -6 0 -28 14 -49 30 -21 17 -43 30 -49 30 -6 0 -11 5 -11 10 0 6 -7
10 -15 10 -8 0 -15 4 -15 8 0 5 -12 15 -27 23 -16 7 -47 26 -69 41 l-42 27
-22 -67z"/>
<path d="M20734 20041 c7 -11 46 -35 46 -28 0 3 -12 12 -26 22 -15 9 -23 12
-20 6z"/>
<path d="M20796 19978 c10 -14 21 -24 23 -22 3 3 -6 15 -18 27 l-24 22 19 -27z"/>
<path d="M20830 19945 c0 -4 24 -34 52 -68 29 -34 54 -64 55 -66 2 -2 5 -2 7
0 2 2 -23 35 -55 72 -32 37 -59 65 -59 62z"/>
<path d="M21001 19738 c29 -35 56 -64 60 -66 5 -2 9 -8 9 -13 0 -5 8 -17 18
-27 9 -10 31 -35 47 -56 55 -71 80 -101 88 -104 4 -2 7 -8 7 -13 0 -8 17 -31
45 -63 6 -6 22 -27 35 -46 13 -19 30 -41 37 -48 7 -7 20 -26 30 -42 9 -17 21
-30 25 -30 4 0 8 -5 8 -10 0 -6 17 -32 38 -59 20 -26 44 -58 52 -71 8 -12 22
-32 31 -44 9 -11 62 -91 120 -176 57 -85 107 -156 111 -158 5 -2 8 -8 8 -14 0
-5 16 -35 37 -66 62 -97 99 -155 129 -205 32 -54 55 -92 82 -136 15 -26 56
-97 115 -201 130 -228 316 -585 419 -805 26 -55 64 -138 86 -185 159 -341 357
-841 501 -1265 67 -197 210 -664 227 -740 1 -5 7 -30 15 -55 7 -25 13 -49 15
-55 1 -5 20 -82 42 -170 40 -159 88 -362 98 -420 3 -16 10 -50 15 -75 6 -25
13 -56 15 -70 3 -14 13 -68 24 -120 10 -52 26 -138 34 -190 9 -52 18 -104 20
-116 2 -12 7 -45 11 -75 4 -30 8 -56 10 -59 1 -3 6 -32 10 -65 3 -32 8 -62 10
-65 2 -3 6 -34 10 -70 3 -36 8 -76 10 -90 2 -14 7 -50 10 -80 3 -30 7 -66 10
-80 2 -14 7 -59 11 -100 4 -41 8 -84 9 -95 1 -11 3 -37 4 -57 0 -21 5 -38 10
-38 6 0 8 8 6 18 -2 10 -6 63 -10 118 -3 54 -8 115 -10 134 -2 19 -7 64 -10
100 -8 83 -10 100 -34 302 -22 175 -23 186 -46 333 -7 50 -16 106 -19 125 -4
29 -66 368 -82 450 -3 14 -18 79 -34 145 -16 66 -31 131 -33 145 -3 14 -8 32
-11 40 -3 8 -7 26 -10 40 -6 32 -62 247 -83 320 -9 30 -18 60 -19 65 -16 67
-140 467 -189 605 -14 41 -30 91 -36 110 -5 19 -14 44 -19 55 -16 38 -110 292
-110 299 0 3 -8 25 -19 49 -10 23 -24 58 -32 77 -17 46 -136 334 -159 385 -10
22 -39 87 -65 145 -130 292 -319 669 -457 915 -28 50 -62 110 -75 133 -14 24
-38 65 -54 90 -16 26 -33 57 -39 70 -5 12 -28 50 -50 83 -22 33 -40 62 -40 65
0 6 -177 282 -249 387 -25 37 -50 75 -56 84 -5 10 -14 23 -20 29 -5 7 -26 36
-45 64 -19 28 -59 83 -88 123 -29 40 -61 82 -70 95 -66 90 -195 258 -229 299
-10 12 -26 32 -37 45 -20 24 -103 122 -146 172 -14 16 -44 49 -67 75 -24 25
-43 49 -43 54 0 4 -5 7 -10 7 -6 0 13 -28 41 -62z"/>
<path d="M18130 19404 c0 -6 -17 -11 -37 -11 -50 0 -114 -11 -162 -28 -22 -7
-42 -11 -45 -8 -3 4 -6 1 -6 -5 0 -7 -3 -11 -7 -10 -8 2 -103 -42 -113 -52 -3
-3 -23 -17 -46 -32 -84 -54 -191 -180 -236 -278 -58 -125 -72 -193 -72 -340 1
-128 27 -230 87 -344 45 -85 155 -211 215 -248 20 -12 39 -24 42 -27 3 -4 19
-13 35 -21 17 -8 33 -19 36 -23 3 -4 16 -9 27 -10 12 -1 22 -6 22 -11 0 -5 3
-6 6 -3 4 3 15 2 26 -4 11 -6 32 -13 46 -16 41 -8 57 -11 60 -13 1 -2 11 -3
21 -4 11 0 22 -3 25 -7 9 -8 241 2 241 11 0 1 9 3 19 5 11 2 31 7 45 11 14 4
29 7 34 6 4 -1 7 2 7 6 0 4 10 8 22 9 11 1 24 7 28 13 4 7 11 12 16 12 51 3
208 127 281 223 17 22 47 72 66 112 150 298 85 657 -159 883 -75 69 -150 114
-269 161 -37 14 -150 34 -195 34 -25 0 -48 5 -52 10 -5 6 -8 6 -8 -1z"/>
<path d="M15086 17852 c-40 -150 -137 -486 -141 -490 -5 -5 18 -47 85 -155 30
-48 63 -102 73 -119 10 -17 51 -86 92 -153 70 -116 207 -353 265 -460 15 -27
40 -72 55 -100 128 -233 173 -319 309 -590 161 -320 251 -509 386 -808 47
-104 55 -116 69 -104 9 8 41 27 71 43 30 16 57 32 58 37 2 4 8 5 13 1 5 -3 9
0 9 5 0 6 3 10 8 9 4 -1 25 6 47 16 43 20 178 66 209 72 39 7 44 -8 -126 359
-139 299 -394 802 -535 1053 -35 63 -63 115 -63 117 0 2 -22 42 -50 90 -27 48
-50 91 -50 96 0 5 -4 9 -10 9 -5 0 -10 4 -10 9 0 8 -93 174 -130 231 -5 8 -27
44 -48 80 -94 158 -168 275 -174 278 -5 2 -8 8 -8 12 0 16 -350 553 -367 563
-5 3 -22 -42 -37 -101z"/>
<path d="M19000 17662 c-19 -15 -42 -34 -51 -44 -10 -9 -19 -14 -21 -12 -3 2
-15 -7 -28 -21 -13 -14 -29 -25 -37 -25 -7 0 -13 -4 -13 -10 0 -5 -5 -10 -11
-10 -6 0 -23 -9 -39 -20 -15 -11 -30 -17 -34 -13 -3 3 -6 1 -6 -5 0 -7 -7 -12
-15 -12 -22 0 -18 -24 14 -83 90 -160 404 -782 486 -962 15 -33 40 -87 55
-120 64 -140 81 -178 150 -335 40 -91 79 -180 86 -197 8 -18 20 -48 28 -65 8
-18 44 -107 80 -198 37 -91 71 -174 76 -185 5 -11 21 -51 36 -90 14 -38 44
-117 66 -175 196 -519 466 -1336 523 -1585 3 -11 9 -31 14 -45 9 -24 108 -391
116 -427 1 -10 13 -56 25 -103 22 -84 26 -100 35 -141 2 -11 7 -29 10 -39 3
-10 7 -27 9 -37 2 -10 15 -67 29 -128 28 -120 73 -323 87 -395 5 -25 11 -54
14 -65 27 -127 108 -577 136 -755 6 -41 14 -86 16 -100 7 -39 34 -230 39 -275
3 -22 8 -57 11 -78 7 -42 10 -66 19 -157 4 -36 9 -73 11 -82 1 -9 6 -48 9 -85
4 -37 8 -75 10 -83 2 -8 7 -55 10 -105 4 -49 8 -101 10 -115 5 -35 15 -143 20
-225 2 -38 7 -101 10 -140 4 -38 8 -99 10 -135 1 -36 6 -139 11 -230 16 -324
10 -1151 -11 -1425 -2 -27 -6 -95 -10 -150 -3 -55 -8 -116 -10 -135 -2 -19 -6
-69 -9 -110 -3 -41 -8 -91 -11 -110 -2 -19 -7 -55 -9 -80 -11 -98 -17 -146
-21 -180 -5 -33 -7 -54 -20 -155 -3 -22 -8 -51 -10 -65 -2 -14 -7 -45 -10 -70
-3 -25 -11 -72 -16 -105 -6 -33 -13 -71 -15 -85 -3 -14 -7 -36 -9 -50 -3 -14
-8 -43 -11 -65 -3 -22 -17 -94 -31 -160 -13 -66 -27 -133 -30 -150 -26 -150
-151 -626 -228 -865 -58 -180 -176 -506 -215 -595 -5 -11 -36 -81 -68 -155
-64 -147 -171 -367 -228 -470 -127 -232 -197 -346 -322 -530 -96 -139 -235
-325 -297 -394 -5 -6 -35 -40 -65 -76 -56 -67 -354 -368 -426 -430 -70 -61
-146 -125 -157 -131 -5 -4 -6 -12 -2 -19 4 -7 10 -8 14 -4 9 13 78 64 86 64 8
0 79 53 83 63 2 4 8 7 14 7 6 0 23 10 38 23 15 12 39 30 53 41 14 10 57 43 94
73 37 30 90 73 116 94 27 21 45 39 41 39 -4 0 6 10 22 23 62 46 299 283 369
369 35 44 109 131 128 150 9 10 17 21 17 24 0 3 8 13 17 22 27 27 148 194 228
315 42 62 79 117 84 123 4 5 14 21 21 35 7 13 16 26 19 29 3 3 12 15 19 28 7
13 42 74 77 135 166 293 284 538 409 855 98 246 249 700 281 842 2 8 13 50 25
92 11 43 23 85 25 95 2 10 15 65 29 123 14 58 27 116 30 130 2 14 12 59 21
100 9 41 19 86 21 100 3 14 13 70 24 125 10 55 21 116 24 135 3 19 8 46 10 60
3 14 7 43 11 65 3 22 10 65 15 95 13 73 58 418 65 500 3 36 8 81 10 100 2 19
7 69 10 110 4 41 8 91 10 110 3 31 11 160 21 310 23 390 23 1032 -1 1476 -13
232 -16 291 -20 314 -2 14 -7 70 -11 125 -3 55 -7 107 -9 115 -2 9 -6 58 -10
110 -4 52 -8 97 -10 100 -2 3 -6 41 -10 85 -3 44 -8 91 -10 105 -4 26 -11 85
-20 168 -3 26 -8 58 -10 72 -2 14 -7 45 -10 70 -3 25 -8 63 -12 85 -3 22 -7
51 -8 65 -3 26 -23 158 -30 200 -5 30 -22 139 -30 195 -4 22 -13 72 -20 110
-8 39 -17 86 -20 105 -7 42 -23 135 -30 170 -50 258 -130 628 -185 855 -18 72
-33 137 -35 145 -15 70 -157 596 -194 715 -5 17 -21 71 -36 120 -228 758 -567
1679 -839 2276 -13 30 -44 99 -69 154 -25 55 -61 135 -81 178 -20 42 -52 112
-72 155 -77 165 -344 693 -432 852 -13 25 -40 74 -60 110 -19 36 -36 66 -37
67 -1 2 -17 -10 -35 -25z"/>
<path d="M14329 15698 c-22 -56 -101 -229 -188 -411 -34 -71 -61 -132 -61
-136 0 -4 56 -119 124 -256 118 -239 139 -283 236 -490 46 -98 162 -363 204
-462 14 -35 37 -86 50 -115 34 -75 154 -376 221 -553 31 -82 60 -159 65 -170
19 -44 107 -294 191 -545 49 -146 89 -265 90 -265 0 0 2 -7 4 -15 2 -8 30
-103 63 -210 33 -107 62 -204 65 -215 3 -11 23 -83 45 -160 55 -192 125 -458
158 -595 71 -304 64 -287 149 -332 22 -11 42 -24 45 -28 3 -3 21 -15 40 -26
19 -10 38 -23 42 -29 4 -5 12 -10 18 -10 6 0 14 -5 18 -10 4 -6 23 -18 42 -28
19 -9 31 -17 25 -17 -5 0 13 -14 40 -30 72 -43 87 -53 109 -72 11 -10 28 -20
38 -24 10 -3 18 -10 18 -15 0 -5 7 -9 15 -9 8 0 15 -4 15 -10 0 -5 7 -10 15
-10 8 0 15 -4 15 -10 0 -5 5 -10 11 -10 11 0 9 34 -5 99 -3 14 -15 70 -26 125
-12 56 -35 162 -51 236 -17 74 -33 146 -35 160 -3 14 -9 39 -14 55 -9 30 -99
393 -105 424 -8 43 -142 513 -202 706 -85 281 -296 909 -332 990 -5 11 -43
112 -86 225 -135 358 -347 861 -520 1235 -56 122 -327 665 -395 794 -65 123
-131 244 -135 249 -1 1 -8 -12 -16 -30z"/>
<path d="M17010 14289 c-30 -4 -58 -5 -62 -3 -5 3 -8 0 -8 -5 0 -6 -3 -10 -7
-9 -10 2 -75 -13 -88 -20 -5 -4 -16 -7 -23 -8 -8 -2 -31 -14 -53 -28 -21 -15
-39 -24 -39 -20 0 3 -6 -1 -14 -8 -8 -7 -29 -24 -47 -38 -31 -24 -44 -37 -104
-105 -34 -39 -99 -175 -115 -240 -35 -144 -10 -326 64 -460 41 -74 124 -168
190 -212 22 -15 44 -32 47 -36 3 -5 9 -8 12 -8 4 0 26 -8 49 -18 39 -16 87
-32 113 -37 6 -1 12 -3 15 -4 22 -9 200 -18 200 -9 0 3 10 5 23 4 12 -1 27 0
32 4 13 7 35 12 63 14 12 0 22 5 22 9 0 4 3 7 8 6 4 -1 17 3 30 10 12 7 22 10
22 8 0 -3 28 12 61 33 295 186 390 547 226 856 -33 61 -162 205 -184 205 -7 0
-13 3 -13 8 0 4 -21 18 -47 32 -27 13 -51 28 -54 33 -3 4 -10 7 -15 6 -5 -1
-22 3 -37 9 -16 7 -37 12 -48 12 -10 0 -19 3 -19 8 0 4 -19 8 -43 8 -23 1 -55
4 -72 6 -16 2 -55 1 -85 -3z"/>
<path d="M13175 13568 c-33 -51 -63 -94 -67 -96 -4 -2 -8 -8 -8 -13 0 -6 -5
-15 -10 -22 -6 -7 -51 -70 -100 -142 -60 -87 -89 -137 -86 -150 2 -11 43 -114
91 -230 98 -240 187 -473 285 -750 10 -27 30 -86 46 -129 l29 -79 230 -92
c127 -50 237 -95 245 -100 8 -5 22 -11 32 -12 9 -1 37 -14 62 -27 44 -23 46
-24 46 -5 0 48 -210 661 -368 1074 -114 298 -351 865 -363 865 -3 0 -32 -42
-64 -92z"/>
<path d="M23758 12868 c6 -100 18 -106 14 -8 -2 44 -7 80 -11 80 -5 0 -6 -33
-3 -72z"/>
<path d="M23768 12723 c5 -83 9 -90 11 -20 0 37 -2 67 -7 67 -4 0 -6 -21 -4
-47z"/>
<path d="M23773 12608 c-2 -18 0 -20 7 -8 12 18 13 30 2 30 -4 0 -9 -10 -9
-22z"/>
<path d="M23781 12494 c0 -11 3 -14 6 -6 3 7 2 16 -1 19 -3 4 -6 -2 -5 -13z"/>
<path d="M17673 12335 c-13 -9 -23 -14 -23 -11 0 3 -15 -3 -32 -14 -18 -11
-40 -20 -48 -20 -8 0 -28 -7 -44 -15 -16 -9 -31 -13 -34 -11 -2 3 -17 -1 -33
-10 -16 -8 -29 -12 -29 -10 0 3 -15 0 -32 -5 -18 -6 -46 -12 -63 -14 -92 -13
-110 -16 -114 -20 -5 -6 2 -38 63 -265 26 -96 50 -186 52 -200 3 -14 11 -48
19 -76 8 -28 21 -80 29 -115 28 -125 86 -385 96 -424 21 -88 78 -373 104 -520
3 -16 11 -57 16 -90 6 -33 13 -71 16 -85 2 -14 7 -40 10 -59 3 -18 8 -43 10
-55 2 -11 9 -52 14 -91 6 -38 15 -95 20 -125 9 -52 13 -77 25 -167 3 -21 7
-49 10 -63 2 -14 7 -47 10 -75 11 -81 14 -108 20 -155 12 -95 15 -117 20 -170
3 -30 8 -66 10 -80 2 -14 7 -54 10 -90 10 -121 -1 -106 281 -387 l263 -264 -4
48 c-2 26 -7 98 -10 158 -3 61 -8 128 -10 150 -2 22 -7 75 -10 118 -7 90 -12
151 -20 227 -3 30 -8 73 -10 95 -13 127 -17 163 -20 190 -2 17 -6 53 -10 80
-8 75 -43 339 -60 453 -3 17 -7 49 -10 70 -3 20 -8 48 -10 62 -3 14 -7 39 -9
55 -7 48 -46 281 -51 307 -3 13 -12 61 -20 108 -15 84 -20 110 -30 160 -3 14
-11 59 -19 100 -22 113 -104 489 -138 630 -16 69 -31 132 -33 140 -14 68 -128
499 -138 521 -11 28 -13 29 -34 14z"/>
<path d="M22156 11662 c-4 -4 -17 -8 -29 -8 -190 -10 -388 -183 -440 -384 -18
-69 -19 -195 -2 -261 42 -159 160 -294 311 -356 31 -12 70 -24 86 -25 15 -1
28 -5 28 -8 0 -3 34 -5 75 -5 41 0 75 2 75 5 0 3 10 5 23 6 64 2 185 53 222
94 10 11 23 20 29 20 6 1 29 23 51 50 141 173 168 380 75 575 -36 76 -125 185
-149 185 -6 0 -11 3 -11 8 0 7 -103 62 -145 77 -28 11 -41 13 -114 20 -36 3
-68 8 -72 10 -3 3 -9 1 -13 -3z"/>
<path d="M22184 10042 c-5 -4 -9 -178 -9 -412 0 -351 -8 -672 -19 -790 -2 -19
-7 -84 -10 -145 -4 -60 -9 -123 -11 -140 -4 -32 -14 -135 -20 -200 -2 -22 -7
-65 -10 -95 -4 -30 -9 -71 -11 -90 -2 -19 -6 -51 -8 -70 -3 -19 -8 -55 -11
-80 -3 -25 -8 -56 -10 -70 -3 -14 -7 -45 -10 -70 -3 -25 -8 -58 -11 -75 -7
-44 -23 -136 -29 -165 -3 -14 -12 -61 -20 -105 -8 -44 -17 -93 -20 -110 -7
-37 -28 -134 -61 -280 -229 -1013 -622 -1906 -1138 -2588 -54 -71 -104 -136
-112 -145 -92 -101 -116 -149 -31 -60 135 142 224 237 242 259 11 13 40 49 65
79 25 30 47 57 50 60 24 22 215 285 245 338 6 9 12 19 15 22 7 7 62 91 76 115
6 11 36 62 67 113 32 51 57 97 57 102 0 4 3 10 8 12 8 4 27 38 137 258 45 91
104 215 130 275 25 61 55 128 65 150 62 140 213 575 279 805 42 149 121 464
137 550 3 14 10 45 15 70 6 25 13 56 15 70 3 14 11 59 19 100 13 69 18 96 31
185 3 17 9 53 14 80 6 28 14 82 20 120 9 71 19 134 25 171 2 11 6 52 10 90 4
38 9 77 11 87 2 10 6 48 10 85 3 37 8 81 10 97 1 17 6 64 9 105 4 41 8 91 10
110 2 19 6 85 10 145 4 61 8 126 10 145 11 114 23 789 16 887 -1 9 -14 11 -43
7 -77 -9 -163 -11 -184 -3 -11 4 -25 4 -30 1z"/>
<path d="M23175 8569 c-4 -6 -5 -12 -2 -15 2 -3 7 2 10 11 7 17 1 20 -8 4z"/>
<path d="M18199 6442 c-31 -26 -73 -60 -95 -77 -21 -16 -46 -38 -56 -47 -10
-10 -18 -16 -18 -13 0 4 -8 -2 -60 -45 -10 -9 -45 -36 -79 -60 -56 -41 -60
-46 -66 -94 -11 -85 -13 -97 -30 -216 -22 -149 -103 -531 -166 -784 -248
-1001 -529 -1698 -938 -2326 -30 -47 -58 -89 -63 -95 -4 -5 -32 -44 -62 -85
-30 -41 -61 -84 -70 -95 -9 -11 -26 -33 -38 -49 -12 -16 -33 -41 -45 -54 -13
-14 -24 -37 -24 -51 -4 -71 3 -142 19 -196 l18 -59 85 86 c46 48 107 112 134
143 28 31 57 64 65 73 65 69 270 336 270 351 0 5 4 11 8 13 11 4 131 184 219
328 404 665 719 1518 912 2475 41 204 105 591 116 700 3 33 8 67 10 75 6 23
18 150 14 150 -2 -1 -29 -22 -60 -48z"/>
<path d="M15458 5285 c-3 -3 -30 -9 -59 -12 -30 -3 -56 -10 -57 -14 -2 -5 -8
-7 -13 -4 -7 5 -73 -13 -119 -32 -8 -3 -17 -7 -20 -7 -12 -2 -125 -60 -130
-66 -3 -4 -15 -13 -28 -19 -53 -28 -171 -144 -226 -221 -38 -52 -111 -195
-121 -235 -60 -234 -54 -415 22 -603 32 -80 97 -194 114 -200 5 -2 9 -9 9 -15
0 -27 218 -217 249 -217 6 0 11 -5 11 -11 0 -5 5 -7 10 -4 6 3 10 3 10 -2 0
-4 15 -14 33 -21 17 -8 41 -18 52 -23 12 -6 28 -11 38 -13 9 -1 20 -5 23 -9 4
-4 18 -7 31 -7 12 0 23 -4 23 -8 0 -4 10 -9 23 -9 58 -4 103 -10 112 -14 21
-11 189 -1 263 16 12 3 32 7 45 10 39 9 122 40 128 48 3 5 8 8 10 7 7 -3 64
24 77 37 8 7 17 11 22 8 5 -3 10 -2 12 2 1 5 28 27 58 50 179 136 294 327 337
559 9 51 10 228 1 282 -42 249 -178 457 -388 598 -55 36 -157 87 -202 99 -5 2
-9 3 -10 5 -4 2 -37 10 -63 15 -11 2 -20 4 -20 5 0 5 -66 13 -107 14 -27 1
-48 4 -48 7 0 8 -65 4 -78 -5 -6 -3 -12 -1 -14 5 -2 5 -6 7 -10 4z"/>
<path d="M20545 4273 l-17 -28 23 22 c12 12 20 25 17 28 -3 3 -13 -7 -23 -22z"/>
<path d="M18724 2776 c-3 -8 -19 -20 -35 -26 -16 -7 -29 -20 -29 -29 0 -9 3
-12 8 -6 11 15 70 55 82 55 5 0 10 5 10 10 0 15 -30 12 -36 -4z"/>
<path d="M18615 2694 l-30 -26 33 18 c17 10 32 22 32 26 0 11 -1 10 -35 -18z"/>
</g>
</svg>
